<svg xmlns="http://www.w3.org/2000/svg" xmlns:xlink="http://www.w3.org/1999/xlink" width="560" zoomAndPan="magnify" viewBox="0 0 420 187.499995" height="250" preserveAspectRatio="xMidYMid meet" version="1.0"><defs><g/><clipPath id="a7878a75dd"><path d="M 3.730469 22.035156 L 89 22.035156 L 89 96.792969 L 3.730469 96.792969 Z M 3.730469 22.035156 " clip-rule="nonzero"/></clipPath></defs><g clip-path="url(#a7878a75dd)"><path fill="#0089a7" d="M 23.335938 92.816406 C 23.910156 92.550781 24.835938 92.296875 25.5625 91.945312 C 26.070312 91.699219 26.507812 91.402344 26.816406 91.085938 C 27.03125 90.859375 27.382812 90.210938 27.0625 89.289062 C 26.710938 88.277344 25.328125 85.9375 25.136719 85.621094 C 24.007812 83.75 21.304688 80.847656 18.800781 79.984375 C 18.300781 79.816406 17.8125 79.710938 17.332031 79.675781 C 17.003906 78.105469 16.609375 76.574219 16.089844 75.085938 C 15.386719 73.085938 14.46875 71.171875 13.214844 69.355469 C 11.289062 66.589844 9.117188 64.953125 7.859375 62.699219 C 7.328125 61.742188 7 60.667969 6.964844 59.285156 C 12.554688 58.210938 18.046875 56.722656 23.558594 55.308594 L 25.804688 65.601562 C 25.957031 66.21875 26.136719 67.84375 26.464844 68.84375 C 26.667969 69.4375 26.957031 69.886719 27.234375 70.128906 C 27.433594 70.3125 27.808594 70.511719 28.308594 70.566406 C 28.808594 70.628906 29.628906 70.566406 29.871094 70.566406 L 35.503906 70.363281 C 39.855469 70.046875 44.167969 69.746094 48.476562 69.332031 C 51.363281 69.058594 54.246094 68.726562 57.140625 68.292969 C 60.367188 67.8125 63.570312 67.28125 66.730469 66.546875 C 68.859375 66.058594 70.96875 65.472656 73.054688 64.761719 C 73.554688 64.589844 76.363281 63.824219 77.386719 63.253906 C 78.132812 62.835938 78.375 62.253906 78.417969 61.914062 C 78.503906 61.210938 78.472656 60.425781 78.375 59.605469 C 78.183594 58.03125 77.714844 56.332031 77.492188 55.011719 L 75.160156 41.023438 C 77.183594 38.90625 79.226562 36.78125 81.175781 34.578125 C 82.8125 32.730469 84.390625 30.828125 85.835938 28.839844 L 88.148438 25.425781 C 88.1875 25.363281 88.625 24.714844 88.773438 24.449219 C 89.296875 23.542969 88.699219 22.789062 88.613281 22.703125 C 88.402344 22.480469 87.902344 22.195312 87.136719 22.183594 C 85.835938 22.171875 82.738281 22.875 82.207031 22.9375 L 64.804688 25.183594 L 38.527344 27.542969 C 36.535156 27.765625 34.308594 27.679688 32.203125 27.859375 C 31.191406 27.945312 30.210938 28.085938 29.285156 28.328125 C 29 28.402344 28.625 28.605469 28.253906 28.945312 C 27.742188 29.421875 27.117188 30.304688 26.808594 30.625 L 21.71875 36.121094 C 18.066406 40.214844 14.460938 44.308594 10.96875 48.484375 C 8.636719 51.28125 6.347656 54.121094 4.113281 57.03125 C 3.804688 57.425781 3.761719 57.9375 3.933594 58.371094 L 3.945312 58.46875 C 3.988281 58.691406 4.082031 58.894531 4.210938 59.0625 C 4.210938 61.105469 4.6875 62.679688 5.457031 64.039062 C 6.753906 66.367188 8.976562 68.066406 10.957031 70.917969 C 12.074219 72.523438 12.882812 74.222656 13.5 75.988281 C 14.011719 77.457031 14.394531 78.976562 14.703125 80.527344 C 14.097656 81.046875 13.554688 81.835938 13.128906 82.960938 L 12.597656 85.460938 L 12.925781 89.691406 L 14.746094 95.378906 C 14.917969 95.773438 15.257812 96.050781 15.652344 96.15625 C 16.109375 96.515625 16.769531 96.550781 17.269531 96.199219 Z M 75.726562 60.976562 L 72.148438 62.179688 C 70.160156 62.859375 68.136719 63.421875 66.101562 63.890625 C 63.007812 64.601562 59.875 65.125 56.726562 65.589844 C 53.882812 66.015625 51.042969 66.347656 48.199219 66.613281 C 43.910156 67.027344 39.609375 67.3125 35.277344 67.632812 L 29.894531 67.835938 L 28.976562 67.84375 L 28.433594 64.933594 L 26.1875 54.640625 C 27.148438 54.40625 28.105469 54.171875 29.0625 53.949219 C 32.375 53.171875 35.703125 52.492188 39.089844 52.027344 C 40.996094 51.757812 42.921875 51.589844 44.835938 51.453125 C 49.402344 51.152344 54 51.101562 58.558594 50.726562 C 59.726562 50.632812 61.910156 50.8125 63.65625 50.644531 C 64.761719 50.539062 65.71875 50.28125 66.359375 49.867188 C 67.242188 49.292969 68.082031 48.582031 68.890625 47.792969 C 70.277344 46.453125 71.5625 44.902344 72.808594 43.519531 L 74.789062 55.449219 C 74.96875 56.566406 75.34375 57.980469 75.566406 59.328125 C 75.660156 59.894531 75.726562 60.457031 75.726562 60.976562 Z M 13.066406 50.21875 C 16.546875 46.0625 20.121094 41.988281 23.761719 37.917969 L 28.785156 32.496094 C 29.050781 32.21875 29.945312 31.15625 30.148438 30.910156 C 30.882812 30.730469 31.648438 30.636719 32.4375 30.570312 C 34.566406 30.390625 36.8125 30.464844 38.835938 30.242188 L 65.09375 27.882812 L 82.539062 25.640625 C 82.78125 25.605469 83.890625 25.4375 84.964844 25.257812 L 83.632812 27.222656 C 82.238281 29.148438 80.71875 30.976562 79.132812 32.761719 C 76.738281 35.472656 74.191406 38.078125 71.710938 40.683594 C 70.425781 42.03125 69.09375 43.679688 67.679688 45.15625 C 66.785156 46.082031 65.859375 46.933594 64.867188 47.582031 C 64.402344 47.890625 63.589844 47.933594 62.738281 47.976562 C 61.132812 48.050781 59.355469 47.921875 58.332031 48.007812 C 53.789062 48.378906 49.210938 48.421875 44.65625 48.730469 C 42.664062 48.855469 40.6875 49.039062 38.707031 49.316406 C 35.238281 49.804688 31.820312 50.496094 28.433594 51.292969 C 21.644531 52.886719 14.972656 54.863281 8.160156 56.277344 C 9.765625 54.226562 11.40625 52.21875 13.066406 50.21875 Z M 19.675781 91.742188 L 18.429688 92.445312 C 17.917969 91.050781 17.535156 89.628906 17.257812 88.171875 C 17.078125 87.195312 16.941406 86.214844 16.84375 85.226562 Z M 20.855469 91.09375 L 17.910156 84.441406 C 18.917969 85.460938 19.910156 86.535156 20.8125 87.660156 C 21.464844 88.46875 22.058594 89.308594 22.601562 90.179688 L 22.1875 90.363281 Z M 22.785156 87.023438 C 22.902344 87.214844 23.667969 88.648438 24.125 89.523438 L 23.792969 89.660156 C 23.1875 88.691406 22.527344 87.746094 21.804688 86.851562 C 20.570312 85.324219 19.1875 83.898438 17.800781 82.535156 C 17.84375 82.546875 17.875 82.546875 17.917969 82.570312 C 19.855469 83.226562 21.910156 85.566406 22.785156 87.023438 Z M 15.621094 89.128906 L 15.332031 85.707031 L 15.535156 84.714844 C 15.628906 85.949219 15.78125 87.183594 16.015625 88.40625 C 16.3125 89.988281 16.75 91.550781 17.3125 93.074219 L 16.949219 93.273438 Z M 15.621094 89.128906 " fill-opacity="1" fill-rule="evenodd"/></g><g fill="#0089a7" fill-opacity="1"><g transform="translate(33.282702, 133.797049)"><g><path d="M 18.808594 -11.691406 C 18.890625 -11.691406 18.890625 -11.691406 18.890625 -11.691406 C 18.890625 -8.421875 18.890625 -5.152344 18.96875 -1.878906 C 18.96875 -1.71875 18.96875 -1.472656 19.050781 -1.226562 C 19.050781 -0.816406 19.296875 -0.492188 19.707031 -0.246094 C 20.035156 0 20.441406 0.164062 20.851562 0.164062 C 22.976562 0.0820312 25.101562 0.0820312 27.230469 0.0820312 C 27.71875 0.0820312 28.292969 0.0820312 28.78125 0 C 29.273438 0 29.601562 -0.328125 29.765625 -0.734375 C 29.925781 -0.980469 30.089844 -1.308594 30.089844 -1.554688 C 30.171875 -2.125 30.171875 -2.617188 30.171875 -3.1875 C 30.171875 -6.785156 30.253906 -10.304688 30.171875 -13.902344 C 30.007812 -19.707031 30.253906 -25.511719 30.335938 -31.316406 C 30.335938 -31.480469 30.335938 -31.5625 30.335938 -31.644531 C 30.335938 -32.054688 30.417969 -32.460938 30.664062 -32.871094 C 31.152344 -33.605469 31.5625 -34.34375 31.972656 -34.996094 C 32.871094 -36.386719 33.6875 -37.695312 34.425781 -39.085938 C 36.632812 -43.175781 39.332031 -47.015625 42.273438 -50.613281 C 43.175781 -51.679688 44.074219 -52.660156 45.054688 -53.558594 C 45.464844 -53.96875 45.789062 -54.375 46.199219 -54.703125 C 46.363281 -54.867188 46.445312 -55.03125 46.527344 -55.195312 C 46.773438 -55.519531 46.773438 -55.847656 46.773438 -56.175781 C 46.773438 -56.421875 46.527344 -56.828125 46.28125 -56.828125 C 45.136719 -57.074219 43.992188 -57.074219 42.847656 -56.828125 C 42.765625 -56.828125 42.601562 -56.828125 42.519531 -56.746094 C 41.457031 -56.257812 40.476562 -55.601562 39.820312 -54.621094 C 38.839844 -53.230469 37.859375 -51.921875 36.960938 -50.453125 C 36.304688 -49.390625 35.570312 -48.324219 34.832031 -47.34375 C 34.097656 -46.28125 33.445312 -45.21875 32.707031 -44.15625 C 31.316406 -42.191406 29.925781 -40.230469 28.457031 -38.269531 C 28.210938 -37.941406 27.882812 -37.613281 27.636719 -37.285156 C 27.394531 -37.042969 26.738281 -37.042969 26.492188 -37.285156 C 26.328125 -37.449219 26.167969 -37.53125 26.003906 -37.695312 C 25.183594 -38.757812 24.449219 -39.984375 23.792969 -41.128906 C 22.648438 -43.175781 21.503906 -45.21875 20.359375 -47.179688 C 19.132812 -49.390625 18.316406 -51.351562 17.582031 -53.96875 C 17.417969 -54.539062 17.253906 -55.113281 17.007812 -55.683594 C 16.679688 -56.421875 16.109375 -56.910156 15.289062 -56.992188 C 14.472656 -56.992188 13.65625 -56.992188 12.757812 -56.992188 C 10.222656 -56.992188 7.6875 -56.992188 5.234375 -57.484375 C 4.332031 -57.566406 3.515625 -57.566406 2.699219 -57.566406 C 2.453125 -57.484375 2.289062 -57.484375 2.042969 -57.402344 C 1.71875 -57.320312 1.226562 -56.421875 1.308594 -56.09375 C 1.390625 -55.929688 1.390625 -55.683594 1.554688 -55.519531 C 2.289062 -54.132812 3.105469 -52.742188 4.007812 -51.515625 C 6.132812 -48.40625 8.011719 -45.300781 9.8125 -42.03125 C 10.464844 -40.804688 11.203125 -39.65625 11.9375 -38.511719 C 13.410156 -36.222656 14.71875 -33.769531 16.109375 -31.480469 C 16.84375 -30.253906 17.417969 -29.027344 17.988281 -27.800781 C 18.152344 -27.394531 18.234375 -26.984375 18.234375 -26.574219 C 18.316406 -25.265625 18.398438 -24.039062 18.726562 -22.8125 C 18.890625 -22.160156 18.808594 -21.503906 18.808594 -20.851562 C 18.808594 -17.824219 18.808594 -14.800781 18.808594 -11.691406 Z M 26.574219 -17.089844 C 26.574219 -13.164062 26.574219 -9.238281 26.574219 -5.398438 C 26.574219 -4.90625 26.574219 -4.496094 26.492188 -4.089844 C 26.410156 -3.925781 26.328125 -3.679688 26.085938 -3.597656 C 25.839844 -3.515625 25.511719 -3.269531 25.265625 -3.1875 C 24.613281 -3.105469 23.957031 -3.105469 23.386719 -3.269531 C 22.976562 -3.351562 22.40625 -4.007812 22.324219 -4.414062 C 22.324219 -4.824219 22.242188 -5.234375 22.242188 -5.640625 C 22.242188 -8.832031 22.242188 -12.019531 22.242188 -15.128906 C 22.160156 -17.824219 22.160156 -20.441406 22.160156 -23.058594 C 22.160156 -24.121094 22.078125 -25.183594 21.914062 -26.246094 C 21.75 -26.820312 21.667969 -27.472656 21.667969 -28.128906 C 21.585938 -28.945312 21.339844 -29.765625 20.933594 -30.5 C 20.195312 -31.890625 19.460938 -33.363281 18.644531 -34.671875 C 17.335938 -36.960938 16.027344 -39.25 14.554688 -41.457031 C 14.390625 -41.703125 14.144531 -41.949219 14.0625 -42.191406 C 12.347656 -45.382812 10.464844 -48.40625 8.585938 -51.515625 C 8.421875 -51.761719 8.339844 -52.085938 8.257812 -52.414062 C 8.175781 -52.578125 8.421875 -53.066406 8.667969 -53.148438 C 8.832031 -53.230469 9.078125 -53.3125 9.238281 -53.3125 C 10.628906 -53.394531 12.019531 -53.476562 13.328125 -53.3125 C 13.574219 -53.3125 13.738281 -53.230469 13.902344 -53.066406 C 14.144531 -52.988281 14.308594 -52.824219 14.390625 -52.660156 C 14.472656 -52.25 14.554688 -51.839844 14.636719 -51.433594 C 14.882812 -49.632812 15.535156 -47.917969 16.355469 -46.363281 C 17.742188 -43.828125 19.214844 -41.375 20.605469 -38.921875 C 21.421875 -37.449219 22.324219 -36.058594 23.46875 -34.753906 C 24.121094 -34.097656 24.695312 -33.28125 25.265625 -32.542969 C 25.511719 -32.300781 25.675781 -32.054688 25.839844 -31.808594 C 26.246094 -31.152344 26.574219 -30.5 26.574219 -29.765625 C 26.574219 -28.292969 26.574219 -26.820312 26.574219 -25.347656 C 26.574219 -22.566406 26.574219 -19.789062 26.574219 -17.089844 Z M 26.574219 -17.089844 "/></g></g></g><g fill="#0089a7" fill-opacity="1"><g transform="translate(80.95142, 133.797049)"><g><path d="M 39.167969 -20.523438 C 39.167969 -21.914062 39.167969 -24.039062 39.167969 -26.167969 C 39.25 -29.847656 39.25 -33.527344 39.25 -37.285156 C 39.25 -37.777344 39.167969 -38.269531 39.085938 -38.839844 C 39.003906 -39.578125 38.59375 -40.230469 37.859375 -40.558594 C 37.285156 -40.804688 36.714844 -41.046875 36.058594 -41.046875 C 34.34375 -41.046875 32.625 -41.046875 30.992188 -41.046875 C 30.746094 -41.046875 30.582031 -40.964844 30.335938 -40.964844 C 29.765625 -40.882812 29.109375 -40.3125 29.027344 -39.738281 C 28.78125 -37.941406 28.539062 -36.222656 28.539062 -34.425781 C 28.539062 -30.171875 28.539062 -25.921875 28.457031 -21.75 C 28.457031 -20.441406 28.457031 -19.132812 28.375 -17.90625 C 28.210938 -16.109375 28.210938 -14.308594 28.128906 -12.511719 C 28.128906 -11.773438 28.210938 -11.039062 28.128906 -10.304688 C 28.046875 -9.484375 27.636719 -8.75 26.902344 -8.175781 C 26.085938 -7.523438 25.183594 -6.949219 24.285156 -6.460938 C 23.714844 -6.132812 23.140625 -5.886719 22.488281 -5.722656 C 20.933594 -5.398438 19.378906 -5.234375 17.824219 -5.398438 C 17.253906 -5.480469 16.761719 -5.558594 16.273438 -5.722656 C 15.210938 -6.132812 14.472656 -6.785156 14.308594 -8.011719 C 14.226562 -8.832031 14.144531 -9.730469 14.144531 -10.546875 C 14.144531 -13.328125 14.144531 -16.027344 14.144531 -18.808594 C 14.144531 -24.039062 14.226562 -29.355469 14.390625 -34.671875 C 14.390625 -35.652344 14.390625 -36.714844 14.308594 -37.777344 C 14.308594 -38.429688 14.0625 -39.085938 13.820312 -39.65625 C 13.65625 -39.984375 13.328125 -40.3125 13 -40.558594 C 12.511719 -40.722656 12.019531 -40.964844 11.449219 -40.964844 C 9.8125 -41.046875 8.09375 -41.046875 6.378906 -41.046875 C 6.050781 -41.046875 5.804688 -41.046875 5.480469 -41.046875 C 4.90625 -40.964844 4.496094 -40.640625 4.171875 -40.148438 C 3.925781 -39.738281 3.761719 -39.25 3.761719 -38.675781 C 3.761719 -35.816406 3.679688 -32.953125 3.515625 -30.089844 C 3.515625 -29.847656 3.515625 -29.519531 3.515625 -29.191406 C 3.433594 -26.738281 3.515625 -24.285156 3.351562 -21.914062 C 3.105469 -17.417969 3.269531 -13 3.1875 -8.585938 C 3.105469 -7.605469 3.351562 -6.707031 3.597656 -5.804688 C 3.761719 -5.398438 3.925781 -4.988281 4.171875 -4.660156 C 5.398438 -3.1875 6.785156 -1.878906 8.339844 -0.816406 C 8.832031 -0.492188 9.238281 -0.246094 9.730469 -0.0820312 C 10.957031 0.164062 12.183594 0.574219 13.492188 0.652344 C 14.882812 0.816406 16.191406 0.898438 17.582031 0.816406 C 18.234375 0.816406 18.808594 0.652344 19.460938 0.410156 C 21.097656 -0.246094 22.648438 -1.144531 24.121094 -2.289062 C 24.859375 -2.863281 25.511719 -3.515625 26.246094 -4.089844 C 26.492188 -4.253906 26.820312 -4.414062 27.066406 -4.578125 C 27.3125 -4.742188 27.71875 -4.496094 27.800781 -4.171875 C 27.800781 -3.433594 27.882812 -2.699219 27.882812 -1.960938 C 27.882812 -1.554688 28.046875 -1.144531 28.210938 -0.734375 C 28.375 -0.328125 28.621094 -0.0820312 29.109375 0.0820312 C 29.355469 0.164062 29.683594 0.246094 30.007812 0.246094 C 32.460938 0.246094 34.832031 0.246094 37.285156 0.246094 C 37.613281 0.246094 37.941406 0.0820312 38.1875 0 C 38.59375 -0.0820312 39.003906 -0.492188 39.085938 -0.816406 C 39.085938 -1.0625 39.167969 -1.226562 39.167969 -1.472656 C 39.25 -3.351562 39.332031 -5.234375 39.332031 -7.113281 C 39.25 -11.367188 39.167969 -15.617188 39.167969 -20.523438 Z M 35.734375 -19.953125 C 35.734375 -18.070312 35.816406 -16.191406 35.816406 -14.226562 C 35.898438 -11.203125 35.816406 -8.175781 35.816406 -5.070312 C 35.816406 -4.824219 35.734375 -4.496094 35.652344 -4.171875 C 35.570312 -3.761719 35.242188 -3.433594 34.832031 -3.269531 C 34.671875 -3.1875 34.425781 -3.105469 34.261719 -3.105469 C 33.851562 -3.105469 33.445312 -3.105469 32.953125 -3.105469 C 32.378906 -3.1875 31.726562 -3.679688 31.644531 -4.253906 C 31.5625 -4.578125 31.5625 -4.90625 31.5625 -5.234375 C 31.5625 -8.996094 31.5625 -12.835938 31.5625 -16.597656 C 31.644531 -17.335938 31.644531 -18.070312 31.726562 -18.808594 C 32.054688 -20.277344 31.972656 -21.75 32.054688 -23.222656 C 32.054688 -27.230469 32.136719 -31.234375 32.136719 -35.242188 C 32.136719 -35.652344 32.136719 -36.058594 32.300781 -36.46875 C 32.460938 -36.878906 32.789062 -37.125 33.199219 -37.285156 C 33.605469 -37.449219 34.015625 -37.367188 34.425781 -37.285156 C 34.996094 -37.285156 35.652344 -36.632812 35.734375 -36.058594 C 35.816406 -35.734375 35.816406 -35.488281 35.816406 -35.160156 C 35.816406 -32.378906 35.816406 -29.683594 35.816406 -26.902344 C 35.816406 -24.613281 35.816406 -22.242188 35.816406 -19.953125 C 35.734375 -19.953125 35.734375 -19.953125 35.734375 -19.953125 Z M 10.628906 -20.851562 C 10.628906 -18.644531 10.628906 -16.4375 10.628906 -14.226562 C 10.546875 -11.773438 10.792969 -9.320312 10.792969 -6.949219 C 10.875 -6.132812 11.285156 -5.316406 11.121094 -4.414062 C 11.039062 -4.171875 10.875 -4.089844 10.710938 -4.089844 C 10.382812 -4.171875 10.058594 -4.253906 9.8125 -4.414062 C 8.996094 -4.90625 8.339844 -5.558594 7.6875 -6.296875 C 7.195312 -6.867188 6.867188 -7.523438 6.785156 -8.257812 C 6.785156 -8.914062 6.785156 -9.566406 6.785156 -10.140625 C 6.785156 -16.191406 6.785156 -22.160156 6.785156 -28.210938 C 6.785156 -29.4375 6.867188 -30.746094 7.113281 -31.972656 C 7.359375 -32.871094 7.359375 -33.851562 7.359375 -34.753906 C 7.359375 -35.324219 7.359375 -35.816406 7.523438 -36.304688 C 7.605469 -36.632812 7.769531 -36.878906 8.011719 -37.125 C 8.585938 -37.53125 9.566406 -37.449219 10.140625 -37.042969 C 10.304688 -36.878906 10.382812 -36.714844 10.464844 -36.550781 C 10.792969 -35.898438 10.957031 -35.160156 10.957031 -34.425781 C 10.792969 -31.480469 10.875 -28.539062 10.710938 -25.59375 C 10.546875 -23.957031 10.628906 -22.40625 10.546875 -20.851562 C 10.546875 -20.851562 10.628906 -20.851562 10.628906 -20.851562 Z M 10.628906 -20.851562 "/></g></g></g><g fill="#0089a7" fill-opacity="1"><g transform="translate(123.223669, 133.797049)"><g><path d="M 39.902344 -13.574219 C 39.902344 -17.417969 39.902344 -21.339844 39.984375 -25.265625 C 39.984375 -29.355469 39.984375 -33.527344 39.984375 -37.613281 C 39.984375 -38.105469 39.984375 -38.675781 39.902344 -39.167969 C 39.738281 -40.722656 39.167969 -41.210938 37.695312 -41.457031 C 37.613281 -41.457031 37.53125 -41.457031 37.367188 -41.457031 C 35.242188 -41.457031 33.199219 -41.457031 31.074219 -41.457031 C 30.253906 -41.375 29.683594 -40.964844 29.355469 -40.230469 C 29.027344 -39.578125 28.78125 -38.839844 28.78125 -38.105469 C 28.699219 -35.816406 28.621094 -33.445312 28.621094 -31.152344 C 28.539062 -27.636719 28.621094 -24.203125 28.539062 -20.6875 C 28.539062 -19.871094 28.621094 -18.96875 28.457031 -18.152344 C 28.128906 -16.597656 28.210938 -15.046875 28.210938 -13.410156 C 28.128906 -12.183594 28.128906 -10.875 28.046875 -9.648438 C 28.046875 -8.75 27.636719 -8.011719 26.902344 -7.441406 C 25.757812 -6.542969 24.53125 -5.722656 23.140625 -5.234375 C 22.40625 -4.90625 21.667969 -4.90625 21.015625 -4.660156 C 19.953125 -4.332031 18.96875 -4.253906 17.90625 -4.332031 C 16.761719 -4.332031 15.78125 -4.578125 14.882812 -5.070312 C 14.0625 -5.480469 13.492188 -6.132812 13.492188 -7.113281 C 13.492188 -7.605469 13.410156 -8.175781 13.410156 -8.667969 C 13.328125 -11.121094 13.328125 -13.492188 13.246094 -15.945312 C 13.246094 -19.050781 13.246094 -22.078125 13.328125 -25.101562 C 13.492188 -29.273438 13.492188 -33.363281 13.492188 -37.53125 C 13.492188 -38.023438 13.492188 -38.511719 13.410156 -39.085938 C 13.164062 -40.394531 12.511719 -41.128906 11.203125 -41.375 C 10.957031 -41.457031 10.710938 -41.457031 10.546875 -41.457031 C 8.339844 -41.457031 6.132812 -41.457031 3.925781 -41.457031 C 3.761719 -41.457031 3.679688 -41.457031 3.597656 -41.457031 C 3.027344 -41.375 2.371094 -40.722656 2.207031 -40.230469 C 2.207031 -39.902344 2.125 -39.578125 2.125 -39.25 C 2.042969 -37.042969 2.042969 -34.832031 1.960938 -32.625 C 1.960938 -29.519531 1.960938 -26.492188 1.878906 -23.46875 C 1.878906 -20.277344 1.800781 -17.089844 1.71875 -13.902344 C 1.71875 -13.492188 1.71875 -13.082031 1.636719 -12.675781 C 1.472656 -11.203125 1.554688 -9.730469 1.554688 -8.257812 C 1.472656 -7.03125 1.71875 -5.96875 2.042969 -4.824219 C 2.371094 -4.007812 2.78125 -3.269531 3.433594 -2.699219 C 4.332031 -1.800781 5.316406 -0.980469 6.214844 -0.164062 C 7.03125 0.492188 8.011719 0.980469 9.078125 1.226562 C 10.222656 1.554688 11.449219 1.960938 12.757812 2.042969 C 13.410156 2.042969 13.984375 2.125 14.636719 2.289062 C 16.027344 2.535156 17.335938 2.289062 18.644531 1.878906 C 19.789062 1.472656 20.851562 0.980469 21.832031 0.328125 C 23.058594 -0.492188 24.203125 -1.390625 25.347656 -2.371094 C 25.757812 -2.78125 26.246094 -3.1875 26.820312 -3.515625 C 27.148438 -3.761719 27.71875 -3.515625 27.800781 -3.105469 C 27.800781 -2.78125 27.882812 -2.453125 27.882812 -2.125 C 27.964844 -0.574219 27.964844 0.980469 27.882812 2.617188 C 27.882812 3.105469 27.882812 3.679688 27.800781 4.171875 C 27.472656 5.398438 27.472656 6.707031 27.472656 7.929688 C 27.472656 9.15625 27.472656 10.304688 27.472656 11.449219 C 27.472656 12.429688 27.230469 13.328125 26.902344 14.226562 C 26.492188 15.210938 26.003906 16.109375 25.265625 16.84375 C 25.019531 17.089844 24.777344 17.335938 24.613281 17.582031 C 24.203125 18.070312 24.449219 18.96875 25.101562 19.132812 C 25.347656 19.214844 25.675781 19.296875 26.003906 19.296875 C 27.066406 19.460938 28.128906 19.378906 29.191406 19.296875 C 30.417969 19.296875 31.644531 18.890625 32.871094 18.480469 C 35.160156 17.582031 37.203125 16.273438 38.59375 14.144531 C 39.003906 13.492188 39.25 12.835938 39.332031 12.101562 C 39.414062 11.9375 39.414062 11.691406 39.414062 11.449219 C 39.496094 8.914062 39.65625 6.460938 39.738281 3.925781 C 39.738281 2.289062 39.738281 0.734375 39.820312 -0.898438 C 39.820312 -2.535156 39.902344 -4.253906 39.902344 -5.96875 C 39.902344 -8.503906 39.902344 -11.039062 39.902344 -13.574219 Z M 31.726562 -12.019531 C 31.808594 -14.800781 31.726562 -17.417969 31.808594 -20.035156 C 31.972656 -24.777344 31.972656 -29.519531 31.972656 -34.261719 C 31.972656 -34.832031 31.972656 -35.324219 32.054688 -35.898438 C 32.054688 -36.386719 32.300781 -36.878906 32.625 -37.285156 C 32.789062 -37.613281 33.035156 -37.777344 33.363281 -37.859375 C 34.015625 -38.023438 34.589844 -37.941406 35.242188 -37.859375 C 35.652344 -37.695312 36.222656 -37.125 36.304688 -36.714844 C 36.304688 -36.550781 36.386719 -36.304688 36.386719 -36.140625 C 36.386719 -35.40625 36.386719 -34.671875 36.386719 -33.933594 C 36.386719 -20.933594 36.386719 -7.929688 36.304688 4.988281 C 36.304688 5.070312 36.304688 5.234375 36.304688 5.316406 C 36.46875 7.359375 36.140625 9.320312 35.734375 11.285156 C 35.652344 11.53125 35.488281 11.855469 35.324219 12.101562 C 35.078125 12.429688 34.832031 12.757812 34.507812 13.082031 C 34.179688 13.492188 33.6875 13.738281 33.199219 13.820312 C 32.625 13.984375 31.726562 13.738281 31.480469 13.328125 C 31.316406 13.164062 31.234375 12.917969 31.152344 12.757812 C 30.992188 12.265625 30.910156 11.773438 30.910156 11.203125 C 30.910156 10.058594 30.992188 8.914062 31.074219 7.769531 C 31.234375 5.722656 31.316406 3.761719 31.316406 1.71875 C 31.316406 -0.164062 31.316406 -2.042969 31.398438 -3.925781 C 31.398438 -4.90625 31.480469 -5.804688 31.5625 -6.785156 C 31.726562 -8.585938 31.726562 -10.382812 31.726562 -12.019531 Z M 9.730469 -22.648438 C 9.8125 -17.582031 9.648438 -13.164062 9.8125 -8.75 C 9.894531 -7.195312 9.976562 -5.804688 10.304688 -4.332031 C 10.382812 -3.925781 10.464844 -3.515625 10.304688 -3.105469 C 10.222656 -2.863281 10.058594 -2.699219 9.894531 -2.699219 C 9.402344 -2.699219 8.996094 -2.863281 8.667969 -3.105469 C 7.769531 -3.597656 6.949219 -4.332031 6.296875 -5.152344 C 5.804688 -5.722656 5.480469 -6.378906 5.316406 -7.113281 C 5.234375 -7.851562 5.070312 -8.585938 5.070312 -9.238281 C 4.988281 -10.140625 4.988281 -10.957031 5.070312 -11.773438 C 5.152344 -14.554688 5.070312 -17.253906 5.234375 -20.035156 C 5.316406 -21.339844 5.316406 -22.730469 5.316406 -24.121094 C 5.316406 -27.554688 5.316406 -31.074219 5.316406 -34.507812 C 5.316406 -35.160156 5.398438 -35.816406 5.480469 -36.386719 C 5.480469 -36.714844 5.722656 -36.960938 5.886719 -37.285156 C 5.96875 -37.449219 6.132812 -37.613281 6.296875 -37.695312 C 7.195312 -38.023438 8.175781 -38.023438 9.078125 -37.777344 C 9.402344 -37.695312 9.566406 -37.449219 9.730469 -37.125 C 9.730469 -36.878906 9.8125 -36.714844 9.8125 -36.46875 C 9.894531 -35.160156 9.894531 -33.769531 9.894531 -32.378906 C 9.894531 -28.945312 9.8125 -25.429688 9.730469 -22.648438 Z M 9.730469 -22.648438 "/></g></g></g><g fill="#0089a7" fill-opacity="1"><g transform="translate(166.068273, 133.797049)"><g><path d="M 14.472656 -20.6875 C 14.472656 -22.488281 14.472656 -24.285156 14.472656 -26.085938 C 14.472656 -29.765625 14.472656 -33.445312 14.472656 -37.203125 C 14.472656 -37.777344 14.472656 -38.429688 14.308594 -39.085938 C 14.226562 -39.820312 13.820312 -40.394531 13 -40.722656 C 12.511719 -40.964844 12.019531 -41.128906 11.53125 -41.128906 C 9.402344 -41.128906 7.277344 -41.128906 5.234375 -41.128906 C 5.070312 -41.128906 4.988281 -41.128906 4.90625 -41.046875 C 4.660156 -41.046875 4.496094 -40.964844 4.332031 -40.804688 C 3.679688 -40.394531 3.1875 -39.820312 3.105469 -39.085938 C 2.945312 -38.269531 2.945312 -37.367188 2.78125 -36.550781 C 2.617188 -35.40625 2.617188 -34.261719 2.78125 -33.117188 C 3.105469 -31.726562 3.105469 -30.335938 3.105469 -29.027344 C 3.105469 -26.246094 3.105469 -23.550781 3.105469 -20.769531 C 3.269531 -15.617188 3.1875 -10.464844 3.027344 -5.234375 C 3.027344 -4.089844 3.027344 -2.945312 3.105469 -1.800781 C 3.105469 -1.390625 3.351562 -0.980469 3.679688 -0.734375 C 4.171875 -0.410156 4.578125 -0.164062 5.152344 -0.0820312 C 7.03125 -0.0820312 8.914062 -0.0820312 10.792969 -0.0820312 C 11.367188 -0.0820312 11.855469 -0.0820312 12.429688 -0.0820312 C 12.835938 -0.164062 13.164062 -0.410156 13.492188 -0.734375 C 14.0625 -1.390625 14.390625 -2.125 14.472656 -3.027344 C 14.472656 -3.761719 14.472656 -4.496094 14.472656 -5.234375 C 14.472656 -10.382812 14.472656 -15.535156 14.472656 -20.6875 Z M 10.957031 -20.769531 C 10.957031 -17.582031 10.957031 -14.472656 10.957031 -11.285156 C 10.957031 -9.894531 10.957031 -8.503906 11.039062 -7.195312 C 11.039062 -6.296875 10.957031 -5.480469 10.710938 -4.660156 C 10.628906 -4.089844 10.222656 -3.761719 9.730469 -3.597656 C 9.078125 -3.351562 8.503906 -3.269531 7.851562 -3.433594 C 7.113281 -3.679688 6.378906 -4.578125 6.460938 -5.398438 C 6.460938 -5.480469 6.460938 -5.558594 6.460938 -5.722656 C 6.785156 -7.6875 6.785156 -9.648438 6.785156 -11.691406 C 6.785156 -14.71875 6.785156 -17.824219 6.785156 -20.851562 C 6.785156 -22.324219 6.707031 -23.792969 6.460938 -25.265625 C 6.378906 -25.839844 6.378906 -26.492188 6.378906 -27.148438 C 6.296875 -29.765625 6.296875 -32.378906 6.214844 -35.078125 C 6.214844 -35.40625 6.214844 -35.652344 6.296875 -35.976562 C 6.378906 -36.46875 6.542969 -36.796875 6.949219 -37.042969 C 7.113281 -37.125 7.277344 -37.285156 7.523438 -37.285156 C 8.339844 -37.53125 9.15625 -37.613281 9.976562 -37.449219 C 10.304688 -37.367188 10.546875 -37.203125 10.710938 -36.796875 C 10.792969 -36.386719 10.957031 -36.058594 11.039062 -35.652344 C 11.121094 -34.914062 11.121094 -34.179688 11.121094 -33.445312 C 11.121094 -30.992188 11.039062 -28.539062 11.039062 -26.167969 C 10.957031 -24.367188 10.957031 -22.566406 10.875 -20.769531 C 10.875 -20.769531 10.957031 -20.769531 10.957031 -20.769531 Z M 3.105469 -49.796875 C 3.105469 -49.46875 3.105469 -49.144531 3.105469 -48.816406 C 3.1875 -47.753906 3.679688 -46.855469 4.578125 -46.117188 C 5.316406 -45.546875 6.132812 -45.136719 7.113281 -44.890625 C 7.605469 -44.808594 8.09375 -44.644531 8.667969 -44.5625 C 8.914062 -44.5625 9.238281 -44.5625 9.566406 -44.5625 C 10.382812 -44.808594 11.203125 -44.972656 12.019531 -45.21875 C 12.675781 -45.464844 13.328125 -45.953125 13.65625 -46.609375 C 14.308594 -47.753906 14.554688 -48.980469 14.390625 -50.289062 C 14.390625 -50.535156 14.308594 -50.859375 14.144531 -51.1875 C 13.164062 -53.394531 11.285156 -54.457031 8.914062 -54.621094 C 7.605469 -54.703125 6.460938 -54.292969 5.316406 -53.722656 C 4.578125 -53.3125 3.925781 -52.742188 3.597656 -51.921875 C 3.269531 -51.1875 3.105469 -50.535156 3.105469 -49.796875 Z M 8.503906 -50.535156 C 9.078125 -50.613281 9.730469 -50.207031 9.894531 -49.796875 C 9.976562 -49.714844 9.976562 -49.632812 9.976562 -49.550781 C 9.976562 -49.46875 9.976562 -49.308594 9.976562 -49.226562 C 9.730469 -48.652344 8.914062 -48.324219 8.421875 -48.488281 C 8.257812 -48.570312 8.011719 -48.734375 7.851562 -48.816406 C 7.441406 -49.144531 7.441406 -49.878906 7.851562 -50.207031 C 8.09375 -50.371094 8.339844 -50.453125 8.503906 -50.535156 Z M 8.503906 -50.535156 "/></g></g></g><g fill="#0089a7" fill-opacity="1"><g transform="translate(183.811171, 133.797049)"><g><path d="M 3.351562 -20.441406 C 3.351562 -15.046875 3.1875 -9.648438 3.269531 -4.332031 C 3.269531 -3.679688 3.269531 -3.027344 3.269531 -2.371094 C 3.269531 -1.636719 3.679688 -0.980469 4.171875 -0.492188 C 4.496094 -0.164062 4.90625 0 5.316406 0.0820312 C 5.398438 0.0820312 5.558594 0.0820312 5.640625 0.0820312 C 7.929688 0.0820312 10.304688 0.0820312 12.59375 0.0820312 C 13.65625 0.0820312 14.71875 -0.652344 14.71875 -1.878906 C 14.636719 -5.152344 14.71875 -8.421875 14.472656 -11.691406 C 14.390625 -12.835938 14.226562 -13.984375 14.226562 -15.128906 C 14.226562 -18.96875 14.144531 -22.730469 14.144531 -26.574219 C 14.144531 -27.472656 14.226562 -28.457031 14.226562 -29.355469 C 14.226562 -30.007812 14.390625 -30.664062 14.554688 -31.234375 C 14.71875 -31.726562 15.046875 -32.21875 15.371094 -32.542969 C 15.453125 -32.625 15.535156 -32.707031 15.617188 -32.789062 C 17.253906 -34.097656 18.398438 -34.671875 20.359375 -35.160156 C 21.996094 -35.570312 23.550781 -35.488281 25.019531 -34.832031 C 25.757812 -34.507812 26.328125 -34.097656 26.738281 -33.445312 C 27.394531 -32.378906 27.964844 -31.234375 28.046875 -29.925781 C 28.128906 -29.273438 28.210938 -28.699219 28.210938 -28.046875 C 28.210938 -26.167969 28.210938 -24.285156 28.210938 -22.324219 C 28.128906 -16.515625 28.128906 -10.710938 28.046875 -4.90625 C 28.046875 -4.660156 28.046875 -4.332031 28.046875 -4.007812 C 28.046875 -3.105469 28.292969 -2.289062 28.699219 -1.554688 C 29.027344 -1.144531 29.355469 -0.734375 29.847656 -0.492188 C 30.417969 -0.164062 30.992188 0.0820312 31.644531 0.0820312 C 33.527344 0.0820312 35.40625 0.0820312 37.367188 0.0820312 C 37.53125 0.0820312 37.777344 0 37.941406 0 C 38.59375 -0.0820312 39.332031 -0.816406 39.414062 -1.472656 C 39.578125 -2.207031 39.578125 -2.945312 39.578125 -3.679688 C 39.414062 -8.996094 39.414062 -14.226562 39.496094 -19.542969 C 39.496094 -22.40625 39.496094 -25.265625 39.496094 -28.046875 C 39.496094 -30.089844 39.332031 -32.054688 38.839844 -34.015625 C 38.351562 -35.976562 37.449219 -37.53125 35.898438 -38.757812 C 35.160156 -39.25 34.507812 -39.738281 33.769531 -40.148438 C 32.625 -40.640625 31.398438 -41.046875 30.089844 -41.046875 C 28.539062 -41.046875 26.902344 -41.128906 25.429688 -40.640625 C 25.101562 -40.476562 24.777344 -40.476562 24.449219 -40.476562 C 23.304688 -40.394531 22.242188 -39.902344 21.097656 -39.578125 C 20.195312 -39.332031 19.296875 -38.921875 18.5625 -38.429688 C 17.417969 -37.777344 16.355469 -37.042969 15.289062 -36.386719 C 15.128906 -36.222656 14.636719 -36.46875 14.636719 -36.796875 C 14.636719 -37.285156 14.554688 -37.859375 14.554688 -38.351562 C 14.554688 -38.675781 14.472656 -39.003906 14.472656 -39.332031 C 14.308594 -39.902344 13.65625 -40.476562 13.164062 -40.558594 C 12.917969 -40.558594 12.675781 -40.558594 12.511719 -40.558594 C 10.058594 -40.558594 7.605469 -40.558594 5.234375 -40.558594 C 4.988281 -40.558594 4.824219 -40.558594 4.578125 -40.476562 C 4.332031 -40.394531 4.007812 -40.3125 3.84375 -39.984375 C 3.597656 -39.496094 3.351562 -39.003906 3.351562 -38.511719 C 3.351562 -37.203125 3.351562 -35.976562 3.351562 -34.671875 C 3.351562 -32.460938 3.351562 -30.253906 3.351562 -28.046875 C 3.433594 -25.511719 3.351562 -22.976562 3.351562 -20.441406 Z M 31.726562 -17.988281 C 31.726562 -21.339844 31.726562 -24.777344 31.726562 -28.128906 C 31.726562 -28.78125 31.726562 -29.355469 31.726562 -30.007812 C 31.726562 -31.644531 31.234375 -33.117188 30.417969 -34.507812 C 30.089844 -35.160156 29.519531 -35.734375 29.273438 -36.386719 C 29.273438 -36.632812 29.4375 -37.125 29.683594 -37.203125 C 29.765625 -37.203125 29.847656 -37.285156 30.007812 -37.285156 C 30.253906 -37.285156 30.664062 -37.285156 30.910156 -37.203125 C 31.890625 -36.878906 32.871094 -36.386719 33.6875 -35.652344 C 34.179688 -35.242188 34.507812 -34.753906 34.832031 -34.179688 C 35.160156 -33.363281 35.488281 -32.625 35.570312 -31.726562 C 35.898438 -29.765625 36.140625 -27.800781 36.140625 -25.757812 C 36.058594 -23.46875 36.140625 -21.097656 36.058594 -18.808594 C 35.976562 -15.210938 36.058594 -11.609375 36.058594 -8.011719 C 36.058594 -7.195312 36.058594 -6.296875 36.058594 -5.480469 C 35.976562 -5.152344 35.976562 -4.824219 35.898438 -4.496094 C 35.816406 -4.089844 35.324219 -3.515625 34.914062 -3.433594 C 34.179688 -3.269531 33.445312 -3.269531 32.707031 -3.515625 C 32.136719 -3.679688 31.808594 -4.171875 31.808594 -4.660156 C 31.726562 -5.398438 31.726562 -6.132812 31.726562 -6.867188 C 31.726562 -10.546875 31.726562 -14.308594 31.726562 -17.988281 Z M 10.792969 -20.441406 C 10.792969 -18.398438 10.875 -16.4375 10.957031 -14.390625 C 10.957031 -11.53125 10.957031 -8.75 11.039062 -5.886719 C 11.039062 -5.480469 10.957031 -4.988281 10.875 -4.578125 C 10.792969 -4.171875 10.464844 -3.84375 10.140625 -3.679688 C 9.566406 -3.351562 8.914062 -3.269531 8.257812 -3.433594 C 7.195312 -3.597656 6.542969 -4.332031 6.460938 -5.316406 C 6.460938 -7.441406 6.378906 -9.566406 6.785156 -11.691406 C 6.949219 -12.511719 6.949219 -13.328125 6.949219 -14.144531 C 7.03125 -15.453125 7.03125 -16.679688 7.03125 -17.988281 C 7.03125 -23.140625 7.03125 -28.375 7.03125 -33.527344 C 7.03125 -34.34375 7.03125 -35.242188 7.113281 -36.058594 C 7.195312 -36.796875 7.929688 -37.367188 8.667969 -37.285156 C 9.078125 -37.203125 9.484375 -37.125 9.894531 -36.878906 C 10.382812 -36.632812 10.710938 -36.222656 10.710938 -35.652344 C 10.792969 -34.996094 10.792969 -34.34375 10.792969 -33.769531 C 10.792969 -30.253906 10.792969 -26.738281 10.792969 -23.304688 C 10.792969 -22.324219 10.792969 -21.421875 10.792969 -20.441406 Z M 10.792969 -20.441406 "/></g></g></g><g fill="#0089a7" fill-opacity="1"><g transform="translate(226.328728, 133.797049)"><g><path d="M 20.277344 -41.867188 C 19.789062 -41.785156 19.214844 -41.785156 18.5625 -41.785156 C 17.171875 -41.785156 15.78125 -41.539062 14.472656 -41.210938 C 12.511719 -40.722656 10.710938 -39.984375 9.15625 -38.59375 C 8.914062 -38.351562 8.667969 -38.1875 8.339844 -38.023438 C 6.949219 -37.042969 5.96875 -35.652344 5.234375 -34.097656 C 4.90625 -33.363281 4.578125 -32.542969 4.253906 -31.808594 C 3.679688 -30.417969 3.351562 -28.945312 3.433594 -27.472656 C 3.515625 -26.902344 3.433594 -26.410156 3.515625 -25.839844 C 3.597656 -23.386719 4.332031 -21.097656 5.558594 -18.96875 C 5.96875 -18.234375 6.542969 -17.582031 7.03125 -16.925781 C 7.277344 -16.515625 7.277344 -16.027344 7.03125 -15.699219 C 6.707031 -15.128906 6.378906 -14.636719 5.96875 -14.144531 C 5.070312 -12.917969 4.414062 -11.609375 3.761719 -10.304688 C 3.027344 -8.585938 2.617188 -6.867188 2.78125 -5.070312 C 2.78125 -4.332031 2.945312 -3.597656 3.1875 -2.863281 C 3.433594 -2.289062 3.679688 -1.71875 4.089844 -1.226562 C 4.332031 -0.898438 4.660156 -0.574219 4.90625 -0.246094 C 5.234375 0.246094 5.234375 0.734375 4.988281 1.226562 C 4.742188 1.878906 4.414062 2.535156 4.089844 3.269531 C 3.515625 4.496094 3.1875 5.804688 2.863281 7.195312 C 2.699219 8.011719 2.699219 8.832031 2.863281 9.730469 C 3.433594 12.265625 4.578125 14.472656 6.460938 16.273438 C 7.523438 17.335938 8.75 18.152344 9.976562 18.890625 C 11.773438 19.871094 13.65625 20.605469 15.617188 21.097656 C 17.089844 21.503906 18.480469 21.585938 19.953125 21.261719 C 20.6875 21.097656 21.421875 20.933594 22.160156 20.933594 C 23.46875 20.933594 24.695312 20.605469 25.839844 20.277344 C 27.066406 19.953125 28.292969 19.542969 29.4375 18.96875 C 32.460938 17.582031 34.589844 15.289062 35.652344 12.101562 C 36.058594 11.039062 36.304688 9.894531 36.632812 8.832031 C 36.960938 7.359375 37.042969 5.886719 36.878906 4.414062 C 36.878906 4.089844 36.878906 3.761719 36.796875 3.433594 C 36.058594 0.980469 34.996094 -1.308594 33.363281 -3.269531 C 32.789062 -4.007812 32.136719 -4.742188 31.316406 -5.234375 C 29.355469 -6.378906 27.394531 -7.277344 25.183594 -7.6875 C 24.203125 -7.769531 23.222656 -7.929688 22.324219 -8.09375 C 20.851562 -8.339844 19.378906 -8.421875 17.90625 -8.421875 C 17.335938 -8.421875 16.84375 -8.421875 16.355469 -8.421875 C 15.046875 -8.421875 13.820312 -8.75 12.59375 -9.15625 C 12.347656 -9.238281 12.019531 -9.484375 11.773438 -9.648438 C 11.203125 -9.976562 10.875 -10.875 11.121094 -11.609375 C 11.285156 -12.347656 12.019531 -12.917969 12.675781 -12.835938 C 13.738281 -12.835938 14.800781 -12.675781 15.863281 -12.511719 C 16.761719 -12.265625 17.742188 -12.183594 18.644531 -12.183594 C 20.277344 -12.183594 21.832031 -12.101562 23.386719 -12.511719 C 23.714844 -12.59375 24.039062 -12.675781 24.367188 -12.675781 C 25.511719 -12.757812 26.574219 -13.164062 27.71875 -13.492188 C 28.210938 -13.574219 28.699219 -13.820312 29.191406 -14.0625 C 30.828125 -15.046875 32.21875 -16.355469 33.28125 -17.988281 C 33.851562 -19.132812 34.507812 -20.195312 35.078125 -21.339844 C 35.816406 -22.648438 36.222656 -24.039062 36.304688 -25.511719 C 36.386719 -26.738281 36.386719 -27.882812 36.386719 -29.027344 C 36.386719 -30.417969 35.976562 -31.726562 35.570312 -33.035156 C 35.40625 -33.363281 35.242188 -33.605469 35.160156 -33.933594 C 34.914062 -34.34375 34.753906 -34.914062 34.589844 -35.40625 C 34.507812 -35.570312 34.589844 -35.816406 34.671875 -35.976562 C 34.914062 -36.386719 35.242188 -36.632812 35.652344 -36.714844 C 36.550781 -36.796875 37.367188 -36.796875 38.1875 -36.878906 C 39.414062 -37.042969 40.230469 -38.105469 40.230469 -39.332031 C 40.148438 -40.230469 39.820312 -40.964844 39.085938 -41.539062 C 38.269531 -42.273438 37.285156 -42.601562 36.222656 -42.519531 C 35.976562 -42.519531 35.816406 -42.519531 35.570312 -42.519531 C 35.242188 -42.4375 34.996094 -42.355469 34.671875 -42.191406 C 34.179688 -41.949219 33.769531 -41.621094 33.445312 -41.210938 C 33.035156 -40.722656 32.707031 -40.230469 32.300781 -39.738281 C 31.972656 -39.414062 31.234375 -39.25 30.828125 -39.332031 C 30.582031 -39.414062 30.417969 -39.496094 30.171875 -39.578125 C 29.683594 -39.820312 29.273438 -40.066406 28.78125 -40.230469 C 26.328125 -41.292969 23.792969 -42.03125 21.097656 -41.867188 C 20.851562 -41.785156 20.6875 -41.867188 20.277344 -41.867188 Z M 15.535156 1.960938 C 16.191406 1.960938 16.84375 1.960938 17.5 1.960938 C 18.644531 1.960938 19.789062 1.960938 20.933594 1.960938 C 22.160156 1.960938 23.222656 2.453125 24.367188 2.535156 C 25.265625 2.535156 26.003906 2.945312 26.820312 3.1875 C 27.472656 3.515625 28.046875 3.925781 28.621094 4.496094 C 29.355469 5.316406 29.765625 6.296875 29.847656 7.359375 C 29.847656 7.929688 29.847656 8.585938 29.683594 9.238281 C 29.601562 9.648438 29.519531 10.058594 29.355469 10.464844 C 28.863281 12.347656 27.800781 13.902344 26.167969 14.964844 C 24.859375 15.863281 23.386719 16.515625 21.832031 16.925781 C 21.339844 17.089844 20.851562 17.089844 20.277344 17.171875 C 18.726562 17.171875 17.171875 16.761719 15.617188 16.4375 C 14.554688 16.191406 13.65625 15.78125 12.675781 15.289062 C 11.53125 14.71875 10.464844 14.0625 9.402344 13.328125 C 8.421875 12.59375 7.769531 11.691406 7.359375 10.546875 C 7.195312 10.304688 7.113281 9.976562 7.113281 9.648438 C 7.113281 8.832031 7.03125 8.011719 7.03125 7.113281 C 7.03125 5.722656 7.441406 4.414062 8.09375 3.1875 C 8.503906 2.535156 9.078125 2.042969 9.894531 2.042969 C 10.710938 1.960938 11.53125 1.960938 12.429688 1.960938 C 13.492188 1.960938 14.472656 1.960938 15.535156 1.960938 Z M 26.328125 -28.046875 C 26.328125 -26.820312 26.328125 -26.246094 26.328125 -25.757812 C 26.328125 -24.695312 26.328125 -23.632812 26.085938 -22.566406 C 25.757812 -21.179688 25.429688 -19.707031 24.941406 -18.316406 C 24.53125 -17.417969 24.121094 -16.679688 23.386719 -15.945312 C 23.058594 -15.699219 22.730469 -15.453125 22.324219 -15.289062 C 22.078125 -15.210938 21.75 -15.128906 21.421875 -14.964844 C 20.851562 -14.800781 20.195312 -14.71875 19.542969 -14.882812 C 19.050781 -14.964844 18.5625 -15.128906 18.070312 -15.210938 C 16.273438 -15.453125 15.371094 -16.679688 14.882812 -18.316406 C 14.882812 -18.398438 14.800781 -18.480469 14.800781 -18.644531 C 14.390625 -21.503906 14.144531 -24.449219 14.226562 -27.472656 C 14.226562 -28.210938 14.308594 -28.945312 14.390625 -29.601562 C 14.554688 -30.664062 14.636719 -31.726562 14.800781 -32.789062 C 15.046875 -34.261719 15.453125 -35.652344 16.109375 -37.042969 C 16.191406 -37.285156 16.355469 -37.53125 16.515625 -37.859375 C 17.335938 -39.085938 18.480469 -39.738281 19.953125 -39.902344 C 20.359375 -39.984375 20.769531 -39.902344 21.179688 -39.820312 C 21.667969 -39.65625 22.160156 -39.496094 22.648438 -39.25 C 22.894531 -39.167969 23.140625 -38.921875 23.386719 -38.675781 C 23.957031 -38.1875 24.367188 -37.613281 24.695312 -36.878906 C 25.019531 -36.140625 25.347656 -35.40625 25.511719 -34.507812 C 25.675781 -33.933594 25.757812 -33.28125 25.921875 -32.707031 C 26.085938 -32.054688 26.167969 -31.480469 26.167969 -30.828125 C 26.246094 -29.683594 26.246094 -28.457031 26.328125 -28.046875 Z M 7.851562 -7.605469 C 7.929688 -7.523438 8.011719 -7.523438 8.175781 -7.523438 C 8.585938 -7.359375 8.832031 -7.03125 9.15625 -6.785156 C 10.546875 -5.640625 12.101562 -5.152344 13.820312 -5.070312 C 14.800781 -4.988281 15.78125 -4.988281 16.679688 -4.988281 C 17.742188 -4.988281 18.808594 -4.988281 19.871094 -4.660156 C 20.359375 -4.578125 20.851562 -4.496094 21.421875 -4.496094 C 22.8125 -4.578125 24.121094 -4.171875 25.429688 -3.761719 C 26.738281 -3.433594 28.046875 -2.863281 29.191406 -2.042969 C 29.519531 -1.800781 29.847656 -1.554688 30.089844 -1.226562 C 30.746094 -0.574219 31.316406 0.246094 31.726562 1.0625 C 31.808594 1.308594 31.726562 1.472656 31.5625 1.636719 C 31.480469 1.71875 31.316406 1.636719 31.234375 1.636719 C 30.746094 1.226562 30.253906 0.898438 29.765625 0.492188 C 28.863281 -0.0820312 27.882812 -0.574219 26.820312 -0.734375 C 26.328125 -0.816406 25.839844 -0.898438 25.265625 -1.0625 C 24.449219 -1.226562 23.632812 -1.390625 22.8125 -1.390625 C 21.75 -1.390625 20.6875 -1.390625 19.625 -1.390625 C 17.007812 -1.390625 14.308594 -1.390625 11.691406 -1.390625 C 11.203125 -1.472656 10.628906 -1.472656 10.140625 -1.472656 C 9.402344 -1.636719 8.75 -1.960938 8.175781 -2.535156 C 7.769531 -2.945312 7.441406 -3.515625 7.195312 -4.089844 C 7.03125 -4.496094 6.949219 -4.90625 6.785156 -5.316406 C 6.542969 -5.96875 6.785156 -6.542969 7.113281 -7.113281 C 7.113281 -7.195312 7.195312 -7.277344 7.277344 -7.359375 C 7.441406 -7.523438 7.605469 -7.605469 7.851562 -7.605469 Z M 7.113281 -26.085938 C 7.113281 -26.984375 7.113281 -27.230469 7.113281 -27.554688 C 7.195312 -28.210938 7.277344 -28.863281 7.441406 -29.4375 C 7.929688 -30.828125 8.585938 -32.21875 9.238281 -33.527344 C 9.402344 -33.851562 9.730469 -34.179688 10.058594 -34.425781 C 10.222656 -34.589844 10.382812 -34.671875 10.628906 -34.589844 C 10.792969 -34.589844 10.957031 -34.425781 11.039062 -34.261719 C 11.121094 -33.933594 11.203125 -33.605469 11.203125 -33.28125 C 11.203125 -32.871094 11.121094 -32.460938 11.121094 -32.054688 C 10.792969 -28.945312 10.710938 -25.921875 10.875 -22.894531 C 10.875 -22.242188 10.875 -21.585938 10.875 -20.933594 C 10.875 -20.769531 10.710938 -20.605469 10.710938 -20.359375 C 10.546875 -19.953125 9.976562 -19.789062 9.648438 -20.035156 C 9.238281 -20.359375 8.914062 -20.769531 8.667969 -21.261719 C 8.09375 -22.324219 7.6875 -23.550781 7.277344 -24.777344 C 7.195312 -25.347656 7.113281 -26.003906 7.113281 -26.085938 Z M 29.925781 -26.738281 C 29.925781 -27.554688 29.925781 -28.375 29.925781 -29.273438 C 29.847656 -30.664062 29.925781 -32.136719 29.601562 -33.605469 C 29.683594 -33.769531 29.765625 -34.015625 29.925781 -34.097656 C 30.089844 -34.261719 30.335938 -34.261719 30.5 -34.097656 C 30.582031 -34.015625 30.664062 -34.015625 30.746094 -33.933594 C 30.828125 -33.851562 30.910156 -33.769531 30.910156 -33.6875 C 31.808594 -32.378906 32.300781 -30.910156 32.625 -29.355469 C 32.953125 -27.71875 32.789062 -26.167969 32.378906 -24.695312 C 32.378906 -24.367188 32.21875 -24.121094 32.054688 -23.792969 C 31.644531 -22.8125 31.152344 -21.914062 30.5 -21.097656 C 30.5 -21.015625 30.335938 -20.933594 30.253906 -20.933594 C 30.171875 -20.933594 30.089844 -21.015625 30.007812 -21.097656 C 30.007812 -21.261719 29.925781 -21.503906 29.925781 -21.667969 C 29.925781 -23.386719 29.925781 -25.019531 29.925781 -26.738281 Z M 29.925781 -26.738281 "/></g></g></g><g fill="#0089a7" fill-opacity="1"><g transform="translate(268.355685, 133.797049)"><g/></g></g><g fill="#0089a7" fill-opacity="1"><g transform="translate(284.708596, 133.797049)"><g><path d="M 3.433594 -19.132812 C 3.351562 -14.0625 3.433594 -8.996094 3.269531 -3.925781 C 3.1875 -3.515625 3.1875 -3.027344 3.1875 -2.617188 C 3.1875 -2.289062 3.269531 -2.042969 3.351562 -1.71875 C 3.433594 -0.734375 4.332031 0.0820312 5.234375 0.0820312 C 5.480469 0.0820312 5.722656 0.0820312 5.886719 0.0820312 C 8.011719 0.0820312 10.140625 0.0820312 12.265625 0.0820312 C 12.757812 0 13.328125 0 13.820312 0 C 14.144531 -0.0820312 14.390625 -0.164062 14.71875 -0.246094 C 15.046875 -0.410156 15.210938 -0.652344 15.289062 -0.980469 C 15.453125 -1.472656 15.453125 -2.042969 15.453125 -2.535156 C 15.453125 -6.625 15.453125 -10.792969 15.453125 -14.882812 C 15.453125 -17.253906 15.535156 -19.542969 15.535156 -21.832031 C 15.535156 -22.324219 15.617188 -22.730469 15.699219 -23.140625 C 15.78125 -23.714844 16.355469 -24.285156 16.925781 -24.367188 C 17.417969 -24.53125 17.988281 -24.613281 18.480469 -24.53125 C 19.050781 -24.449219 19.542969 -24.285156 19.871094 -23.875 C 20.035156 -23.714844 20.195312 -23.550781 20.277344 -23.386719 C 21.914062 -21.097656 23.550781 -18.726562 24.941406 -16.191406 C 25.59375 -15.128906 26.167969 -14.0625 26.902344 -13 C 27.800781 -11.691406 28.699219 -10.382812 29.601562 -9.078125 C 30.089844 -8.257812 30.664062 -7.441406 31.152344 -6.625 C 31.480469 -6.050781 31.808594 -5.398438 32.21875 -4.742188 C 32.953125 -3.433594 33.769531 -2.207031 34.753906 -1.0625 C 34.996094 -0.734375 35.324219 -0.492188 35.652344 -0.246094 C 35.976562 0.0820312 36.386719 0.246094 36.796875 0.246094 C 37.042969 0.246094 37.203125 0.328125 37.449219 0.328125 C 40.066406 0.164062 42.683594 0.164062 45.382812 0.0820312 C 45.546875 0.0820312 45.789062 0 45.953125 0 C 46.445312 -0.0820312 46.9375 -0.652344 46.9375 -1.144531 C 47.015625 -1.554688 46.9375 -1.960938 46.773438 -2.371094 C 46.363281 -3.351562 45.789062 -4.253906 45.21875 -5.070312 C 43.746094 -7.441406 42.273438 -9.730469 40.882812 -12.101562 C 40.3125 -13.082031 39.738281 -14.0625 39.003906 -15.046875 C 38.675781 -15.453125 38.429688 -15.945312 38.1875 -16.355469 C 37.449219 -17.5 36.714844 -18.644531 35.976562 -19.871094 C 34.914062 -21.503906 33.769531 -23.140625 32.707031 -24.859375 C 32.378906 -25.347656 32.21875 -25.839844 31.972656 -26.246094 C 31.890625 -26.492188 31.890625 -26.65625 32.054688 -26.902344 C 32.136719 -27.066406 32.21875 -27.3125 32.378906 -27.394531 C 32.953125 -27.964844 33.6875 -28.457031 34.425781 -28.863281 C 35.898438 -29.519531 37.125 -30.5 38.429688 -31.398438 C 39.984375 -32.542969 41.292969 -33.933594 42.273438 -35.570312 C 43.335938 -37.203125 43.992188 -38.921875 43.992188 -40.882812 C 44.074219 -42.355469 44.15625 -43.828125 43.910156 -45.300781 C 43.828125 -45.871094 43.664062 -46.363281 43.5 -46.855469 C 41.785156 -50.777344 38.921875 -53.640625 35.078125 -55.601562 C 33.6875 -56.339844 32.21875 -56.746094 30.582031 -56.910156 C 27.964844 -57.15625 25.347656 -57.402344 22.648438 -57.320312 C 21.097656 -57.320312 19.542969 -57.320312 17.90625 -57.320312 C 14.226562 -57.320312 10.546875 -57.320312 6.867188 -57.320312 C 6.296875 -57.320312 5.804688 -57.238281 5.234375 -57.238281 C 4.496094 -57.074219 3.679688 -56.257812 3.597656 -55.519531 C 3.515625 -55.195312 3.433594 -54.867188 3.433594 -54.539062 C 3.515625 -50.535156 3.433594 -46.527344 3.679688 -42.519531 C 3.84375 -40.640625 3.84375 -38.757812 3.597656 -36.878906 C 3.515625 -35.816406 3.433594 -34.753906 3.433594 -33.6875 C 3.433594 -28.863281 3.433594 -23.957031 3.433594 -19.132812 Z M 15.453125 -40.066406 C 15.453125 -42.4375 15.453125 -44.726562 15.453125 -47.015625 C 15.453125 -48.652344 15.535156 -50.207031 15.78125 -51.761719 C 15.78125 -52.167969 15.863281 -52.660156 16.027344 -52.988281 C 16.191406 -53.558594 16.597656 -53.96875 17.089844 -54.132812 C 17.988281 -54.375 18.96875 -54.539062 19.871094 -54.703125 C 20.523438 -54.785156 21.097656 -54.785156 21.75 -54.621094 C 22.40625 -54.539062 22.976562 -54.375 23.632812 -54.292969 C 25.757812 -53.886719 27.472656 -52.742188 28.863281 -51.023438 C 29.273438 -50.453125 29.519531 -49.878906 29.683594 -49.308594 C 30.007812 -48.40625 30.253906 -47.507812 30.335938 -46.527344 C 30.664062 -43.5 30.664062 -40.476562 30.007812 -37.449219 C 29.601562 -35.898438 29.027344 -34.425781 28.128906 -33.117188 C 27.148438 -31.726562 26.003906 -30.5 24.613281 -29.519531 C 23.550781 -28.78125 22.40625 -28.292969 21.097656 -28.046875 C 19.953125 -27.882812 18.808594 -27.71875 17.664062 -27.71875 C 17.335938 -27.636719 17.089844 -27.71875 16.761719 -27.71875 C 16.273438 -27.71875 15.699219 -28.292969 15.617188 -28.699219 C 15.535156 -29.191406 15.453125 -29.601562 15.453125 -30.007812 C 15.453125 -31.480469 15.453125 -32.953125 15.453125 -34.425781 C 15.453125 -36.304688 15.453125 -38.1875 15.453125 -40.066406 Z M 12.101562 -28.78125 C 12.101562 -21.914062 12.101562 -15.046875 12.101562 -8.257812 C 12.101562 -7.359375 12.019531 -6.542969 12.019531 -5.722656 C 12.019531 -5.152344 11.773438 -4.660156 11.53125 -4.171875 C 11.449219 -3.925781 11.121094 -3.679688 10.875 -3.597656 C 9.8125 -3.1875 8.832031 -3.1875 7.769531 -3.515625 C 7.359375 -3.597656 7.03125 -3.925781 6.867188 -4.332031 C 6.785156 -4.578125 6.707031 -4.90625 6.707031 -5.234375 C 6.625 -6.214844 6.542969 -7.113281 6.785156 -8.09375 C 7.03125 -9.648438 7.03125 -11.203125 7.03125 -12.835938 C 7.03125 -18.890625 7.03125 -25.019531 7.03125 -31.152344 C 7.03125 -32.625 7.113281 -34.097656 7.113281 -35.570312 C 7.113281 -38.023438 7.113281 -40.476562 7.113281 -42.847656 C 7.113281 -45.382812 7.03125 -47.917969 7.03125 -50.453125 C 7.03125 -51.105469 7.113281 -51.761719 7.113281 -52.332031 C 7.195312 -52.90625 7.769531 -53.476562 8.421875 -53.558594 C 9.238281 -53.722656 10.058594 -53.722656 10.957031 -53.558594 C 11.367188 -53.476562 11.9375 -52.988281 12.019531 -52.496094 C 12.019531 -52.332031 12.101562 -52.085938 12.101562 -51.921875 C 12.101562 -51.597656 12.101562 -51.269531 12.101562 -50.941406 C 12.101562 -43.582031 12.101562 -36.140625 12.101562 -28.78125 Z M 39.167969 -3.269531 C 38.839844 -3.351562 38.511719 -3.351562 38.1875 -3.351562 C 37.613281 -3.515625 37.203125 -3.679688 36.878906 -4.171875 C 36.714844 -4.578125 36.46875 -4.90625 36.222656 -5.316406 C 34.996094 -7.6875 33.605469 -10.058594 31.972656 -12.265625 C 29.601562 -15.699219 27.394531 -19.296875 25.265625 -22.976562 C 25.183594 -23.140625 25.101562 -23.304688 24.941406 -23.46875 C 24.695312 -24.039062 24.859375 -24.859375 25.265625 -25.265625 C 25.675781 -25.59375 26.085938 -25.921875 26.574219 -26.167969 C 26.820312 -26.246094 27.3125 -26.085938 27.472656 -25.921875 C 28.128906 -25.019531 28.78125 -24.039062 29.355469 -23.058594 C 30.171875 -21.75 30.910156 -20.523438 31.726562 -19.296875 C 33.28125 -17.007812 34.753906 -14.71875 36.304688 -12.429688 C 36.632812 -11.855469 37.125 -11.285156 37.449219 -10.628906 C 38.269531 -8.914062 39.332031 -7.277344 40.394531 -5.722656 C 40.640625 -5.316406 40.882812 -4.824219 41.046875 -4.332031 C 41.128906 -4.089844 40.882812 -3.679688 40.640625 -3.597656 C 40.558594 -3.515625 40.476562 -3.515625 40.394531 -3.433594 C 39.984375 -3.433594 39.578125 -3.351562 39.167969 -3.269531 Z M 40.640625 -42.847656 C 40.640625 -41.210938 40.230469 -39.984375 39.738281 -38.839844 C 39.414062 -38.1875 39.003906 -37.53125 38.675781 -36.960938 C 38.1875 -36.140625 37.53125 -35.40625 36.714844 -34.832031 C 35.734375 -34.179688 34.832031 -33.445312 33.851562 -32.953125 C 33.605469 -32.789062 33.363281 -32.789062 33.199219 -32.953125 C 33.117188 -33.117188 32.953125 -33.28125 32.871094 -33.445312 C 32.789062 -33.6875 32.871094 -33.851562 32.953125 -34.097656 C 33.035156 -35.160156 33.605469 -36.058594 33.6875 -37.125 C 33.769531 -38.1875 33.851562 -39.25 33.933594 -40.3125 C 34.097656 -41.457031 34.097656 -42.601562 34.015625 -43.746094 C 33.933594 -44.972656 33.851562 -46.117188 33.769531 -47.261719 C 33.769531 -48.324219 33.6875 -49.390625 33.363281 -50.371094 C 33.28125 -50.453125 33.28125 -50.613281 33.28125 -50.695312 C 33.363281 -51.023438 33.527344 -51.269531 33.851562 -51.433594 C 34.015625 -51.515625 34.179688 -51.515625 34.425781 -51.433594 C 35.488281 -50.941406 36.386719 -50.289062 37.285156 -49.46875 C 37.367188 -49.46875 37.449219 -49.390625 37.53125 -49.308594 C 38.757812 -47.671875 39.902344 -46.035156 40.394531 -44.074219 C 40.558594 -43.582031 40.640625 -43.011719 40.640625 -42.847656 Z M 40.640625 -42.847656 "/></g></g></g><g fill="#0089a7" fill-opacity="1"><g transform="translate(333.685545, 133.797049)"><g><path d="M 21.914062 0.246094 C 22.160156 0.246094 22.8125 0.328125 23.46875 0.328125 C 25.265625 0.328125 26.984375 0.0820312 28.699219 -0.652344 C 30.992188 -1.472656 33.117188 -2.617188 35.242188 -3.925781 C 35.488281 -4.089844 35.734375 -4.253906 35.976562 -4.496094 C 36.386719 -4.824219 36.632812 -5.316406 36.632812 -5.804688 C 36.714844 -6.625 36.058594 -7.277344 35.324219 -7.195312 C 34.753906 -7.113281 34.179688 -7.03125 33.769531 -6.867188 C 32.789062 -6.460938 31.726562 -6.296875 30.664062 -5.96875 C 29.601562 -5.640625 28.457031 -5.558594 27.230469 -5.640625 C 26.167969 -5.722656 25.183594 -6.050781 24.203125 -6.296875 C 22.566406 -6.867188 21.097656 -7.6875 19.871094 -8.914062 C 18.398438 -10.304688 17.171875 -11.855469 16.109375 -13.574219 C 16.027344 -13.738281 15.863281 -13.902344 15.78125 -14.144531 C 15.128906 -15.863281 14.390625 -17.664062 14.0625 -19.542969 C 13.984375 -19.789062 14.308594 -20.441406 14.636719 -20.523438 C 14.882812 -20.605469 15.046875 -20.6875 15.289062 -20.769531 C 16.597656 -21.015625 17.988281 -21.097656 19.378906 -21.097656 C 21.585938 -21.097656 23.792969 -21.097656 26.003906 -21.097656 C 29.4375 -21.097656 32.789062 -21.261719 36.140625 -21.421875 C 36.46875 -21.421875 36.796875 -21.503906 37.125 -21.585938 C 37.53125 -21.667969 37.859375 -21.914062 38.105469 -22.324219 C 38.351562 -22.648438 38.429688 -23.058594 38.511719 -23.46875 C 38.675781 -24.859375 38.59375 -26.246094 38.1875 -27.554688 C 38.023438 -28.292969 37.941406 -29.027344 37.695312 -29.683594 C 37.367188 -30.910156 37.203125 -32.21875 36.796875 -33.363281 C 36.304688 -34.832031 35.488281 -35.976562 34.261719 -36.960938 C 32.21875 -38.675781 30.007812 -40.066406 27.394531 -40.804688 C 26.738281 -41.046875 26.003906 -41.210938 25.265625 -41.210938 C 24.285156 -41.210938 23.386719 -41.128906 22.40625 -40.882812 C 22.078125 -40.722656 21.585938 -40.722656 21.179688 -40.558594 C 19.460938 -40.230469 17.664062 -39.902344 15.945312 -39.332031 C 13.328125 -38.511719 10.875 -37.367188 8.832031 -35.40625 C 8.503906 -35.160156 8.175781 -34.914062 7.851562 -34.589844 C 6.460938 -33.28125 5.398438 -31.726562 4.578125 -30.007812 C 3.433594 -27.472656 2.863281 -24.777344 2.371094 -22.078125 C 2.289062 -21.914062 2.289062 -21.667969 2.289062 -21.421875 C 2.125 -18.5625 2.125 -15.78125 2.863281 -12.917969 C 3.027344 -11.855469 3.433594 -10.957031 3.925781 -9.976562 C 4.824219 -8.421875 5.886719 -6.949219 7.277344 -5.722656 C 7.523438 -5.480469 7.851562 -5.234375 8.257812 -4.988281 C 9.976562 -3.761719 11.773438 -2.617188 13.65625 -1.636719 C 14.554688 -1.144531 15.535156 -0.816406 16.515625 -0.410156 C 17.171875 -0.246094 17.742188 -0.0820312 18.398438 0 C 19.460938 0.0820312 20.523438 0.164062 21.914062 0.246094 Z M 21.015625 -23.875 C 19.460938 -23.875 17.90625 -23.875 16.273438 -23.875 C 15.863281 -23.957031 15.453125 -24.039062 15.046875 -24.121094 C 14.71875 -24.203125 14.308594 -24.695312 14.308594 -25.019531 C 14.226562 -25.347656 14.226562 -25.59375 14.226562 -25.921875 C 14.390625 -27.394531 14.964844 -28.78125 15.289062 -30.253906 C 15.699219 -31.808594 16.515625 -33.117188 17.582031 -34.34375 C 18.726562 -35.652344 20.195312 -36.386719 21.832031 -36.796875 C 22.648438 -36.960938 23.550781 -36.960938 24.367188 -37.042969 C 24.449219 -37.042969 24.613281 -37.042969 24.695312 -37.042969 C 25.921875 -36.960938 26.902344 -36.386719 27.554688 -35.324219 C 28.128906 -34.425781 28.375 -33.363281 28.457031 -32.300781 C 28.457031 -31.152344 28.457031 -30.007812 28.457031 -28.863281 C 28.457031 -27.882812 28.375 -26.984375 28.375 -26.003906 C 28.292969 -25.675781 28.210938 -25.429688 28.128906 -25.101562 C 27.964844 -24.53125 27.554688 -24.203125 26.984375 -24.039062 C 26.574219 -23.957031 26.167969 -23.875 25.757812 -23.875 C 24.203125 -23.875 22.648438 -23.875 21.015625 -23.875 Z M 10.957031 -31.972656 C 11.121094 -31.808594 11.285156 -31.726562 11.285156 -31.480469 C 11.203125 -31.074219 11.203125 -30.582031 11.121094 -30.253906 C 10.710938 -29.273438 10.628906 -28.210938 10.382812 -27.148438 C 10.058594 -25.921875 9.894531 -24.695312 9.894531 -23.386719 C 9.894531 -22.8125 9.894531 -22.160156 9.894531 -21.503906 C 9.894531 -20.769531 10.058594 -20.035156 10.222656 -19.378906 C 10.546875 -17.5 11.121094 -15.699219 11.773438 -13.902344 C 12.183594 -12.917969 12.675781 -12.019531 13.246094 -11.121094 C 14.226562 -9.648438 15.289062 -8.175781 16.597656 -6.949219 C 17.335938 -6.378906 18.070312 -5.722656 18.5625 -4.90625 C 18.726562 -4.742188 18.480469 -4.171875 18.234375 -4.171875 C 18.152344 -4.171875 17.988281 -4.089844 17.90625 -4.089844 C 17.417969 -4.253906 16.925781 -4.414062 16.4375 -4.578125 C 14.226562 -5.558594 12.183594 -6.867188 10.140625 -8.257812 C 9.976562 -8.339844 9.8125 -8.503906 9.648438 -8.667969 C 8.421875 -9.894531 7.359375 -11.367188 6.785156 -13.082031 C 6.542969 -13.902344 6.214844 -14.71875 6.132812 -15.535156 C 6.050781 -16.191406 5.886719 -16.761719 5.804688 -17.417969 C 5.558594 -18.644531 5.480469 -19.871094 5.886719 -21.097656 C 6.214844 -22.242188 6.460938 -23.386719 6.707031 -24.53125 C 7.113281 -26.246094 7.851562 -27.882812 8.667969 -29.519531 C 9.078125 -30.335938 9.566406 -31.152344 10.304688 -31.726562 C 10.464844 -31.808594 10.710938 -31.890625 10.957031 -31.972656 Z M 31.808594 -29.4375 C 31.726562 -30.5 31.726562 -31.5625 32.21875 -32.542969 C 32.378906 -32.789062 32.542969 -32.789062 32.707031 -32.625 C 32.871094 -32.460938 33.117188 -32.378906 33.199219 -32.21875 C 33.527344 -31.074219 33.933594 -30.007812 34.097656 -28.863281 C 34.261719 -28.128906 34.425781 -27.394531 34.589844 -26.738281 C 34.671875 -26.410156 34.589844 -26.085938 34.507812 -25.757812 C 34.425781 -25.347656 33.6875 -24.859375 33.28125 -25.019531 C 33.199219 -25.101562 33.117188 -25.101562 32.953125 -25.183594 C 32.542969 -25.347656 32.21875 -25.59375 32.136719 -26.003906 C 31.972656 -26.492188 31.808594 -27.066406 31.808594 -27.554688 C 31.726562 -28.210938 31.808594 -28.78125 31.808594 -29.4375 Z M 31.808594 -29.4375 "/></g></g></g><g fill="#0089a7" fill-opacity="1"><g transform="translate(374.3225, 133.797049)"><g><path d="M 3.351562 -20.441406 C 3.351562 -15.046875 3.1875 -9.648438 3.269531 -4.332031 C 3.269531 -3.679688 3.269531 -3.027344 3.269531 -2.371094 C 3.269531 -1.636719 3.679688 -0.980469 4.171875 -0.492188 C 4.496094 -0.164062 4.90625 0 5.316406 0.0820312 C 5.398438 0.0820312 5.558594 0.0820312 5.640625 0.0820312 C 7.929688 0.0820312 10.304688 0.0820312 12.59375 0.0820312 C 13.65625 0.0820312 14.71875 -0.652344 14.71875 -1.878906 C 14.636719 -5.152344 14.71875 -8.421875 14.472656 -11.691406 C 14.390625 -12.835938 14.226562 -13.984375 14.226562 -15.128906 C 14.226562 -18.96875 14.144531 -22.730469 14.144531 -26.574219 C 14.144531 -27.472656 14.226562 -28.457031 14.226562 -29.355469 C 14.226562 -30.007812 14.390625 -30.664062 14.554688 -31.234375 C 14.71875 -31.726562 15.046875 -32.21875 15.371094 -32.542969 C 15.453125 -32.625 15.535156 -32.707031 15.617188 -32.789062 C 17.253906 -34.097656 18.398438 -34.671875 20.359375 -35.160156 C 21.996094 -35.570312 23.550781 -35.488281 25.019531 -34.832031 C 25.757812 -34.507812 26.328125 -34.097656 26.738281 -33.445312 C 27.394531 -32.378906 27.964844 -31.234375 28.046875 -29.925781 C 28.128906 -29.273438 28.210938 -28.699219 28.210938 -28.046875 C 28.210938 -26.167969 28.210938 -24.285156 28.210938 -22.324219 C 28.128906 -16.515625 28.128906 -10.710938 28.046875 -4.90625 C 28.046875 -4.660156 28.046875 -4.332031 28.046875 -4.007812 C 28.046875 -3.105469 28.292969 -2.289062 28.699219 -1.554688 C 29.027344 -1.144531 29.355469 -0.734375 29.847656 -0.492188 C 30.417969 -0.164062 30.992188 0.0820312 31.644531 0.0820312 C 33.527344 0.0820312 35.40625 0.0820312 37.367188 0.0820312 C 37.53125 0.0820312 37.777344 0 37.941406 0 C 38.59375 -0.0820312 39.332031 -0.816406 39.414062 -1.472656 C 39.578125 -2.207031 39.578125 -2.945312 39.578125 -3.679688 C 39.414062 -8.996094 39.414062 -14.226562 39.496094 -19.542969 C 39.496094 -22.40625 39.496094 -25.265625 39.496094 -28.046875 C 39.496094 -30.089844 39.332031 -32.054688 38.839844 -34.015625 C 38.351562 -35.976562 37.449219 -37.53125 35.898438 -38.757812 C 35.160156 -39.25 34.507812 -39.738281 33.769531 -40.148438 C 32.625 -40.640625 31.398438 -41.046875 30.089844 -41.046875 C 28.539062 -41.046875 26.902344 -41.128906 25.429688 -40.640625 C 25.101562 -40.476562 24.777344 -40.476562 24.449219 -40.476562 C 23.304688 -40.394531 22.242188 -39.902344 21.097656 -39.578125 C 20.195312 -39.332031 19.296875 -38.921875 18.5625 -38.429688 C 17.417969 -37.777344 16.355469 -37.042969 15.289062 -36.386719 C 15.128906 -36.222656 14.636719 -36.46875 14.636719 -36.796875 C 14.636719 -37.285156 14.554688 -37.859375 14.554688 -38.351562 C 14.554688 -38.675781 14.472656 -39.003906 14.472656 -39.332031 C 14.308594 -39.902344 13.65625 -40.476562 13.164062 -40.558594 C 12.917969 -40.558594 12.675781 -40.558594 12.511719 -40.558594 C 10.058594 -40.558594 7.605469 -40.558594 5.234375 -40.558594 C 4.988281 -40.558594 4.824219 -40.558594 4.578125 -40.476562 C 4.332031 -40.394531 4.007812 -40.3125 3.84375 -39.984375 C 3.597656 -39.496094 3.351562 -39.003906 3.351562 -38.511719 C 3.351562 -37.203125 3.351562 -35.976562 3.351562 -34.671875 C 3.351562 -32.460938 3.351562 -30.253906 3.351562 -28.046875 C 3.433594 -25.511719 3.351562 -22.976562 3.351562 -20.441406 Z M 31.726562 -17.988281 C 31.726562 -21.339844 31.726562 -24.777344 31.726562 -28.128906 C 31.726562 -28.78125 31.726562 -29.355469 31.726562 -30.007812 C 31.726562 -31.644531 31.234375 -33.117188 30.417969 -34.507812 C 30.089844 -35.160156 29.519531 -35.734375 29.273438 -36.386719 C 29.273438 -36.632812 29.4375 -37.125 29.683594 -37.203125 C 29.765625 -37.203125 29.847656 -37.285156 30.007812 -37.285156 C 30.253906 -37.285156 30.664062 -37.285156 30.910156 -37.203125 C 31.890625 -36.878906 32.871094 -36.386719 33.6875 -35.652344 C 34.179688 -35.242188 34.507812 -34.753906 34.832031 -34.179688 C 35.160156 -33.363281 35.488281 -32.625 35.570312 -31.726562 C 35.898438 -29.765625 36.140625 -27.800781 36.140625 -25.757812 C 36.058594 -23.46875 36.140625 -21.097656 36.058594 -18.808594 C 35.976562 -15.210938 36.058594 -11.609375 36.058594 -8.011719 C 36.058594 -7.195312 36.058594 -6.296875 36.058594 -5.480469 C 35.976562 -5.152344 35.976562 -4.824219 35.898438 -4.496094 C 35.816406 -4.089844 35.324219 -3.515625 34.914062 -3.433594 C 34.179688 -3.269531 33.445312 -3.269531 32.707031 -3.515625 C 32.136719 -3.679688 31.808594 -4.171875 31.808594 -4.660156 C 31.726562 -5.398438 31.726562 -6.132812 31.726562 -6.867188 C 31.726562 -10.546875 31.726562 -14.308594 31.726562 -17.988281 Z M 10.792969 -20.441406 C 10.792969 -18.398438 10.875 -16.4375 10.957031 -14.390625 C 10.957031 -11.53125 10.957031 -8.75 11.039062 -5.886719 C 11.039062 -5.480469 10.957031 -4.988281 10.875 -4.578125 C 10.792969 -4.171875 10.464844 -3.84375 10.140625 -3.679688 C 9.566406 -3.351562 8.914062 -3.269531 8.257812 -3.433594 C 7.195312 -3.597656 6.542969 -4.332031 6.460938 -5.316406 C 6.460938 -7.441406 6.378906 -9.566406 6.785156 -11.691406 C 6.949219 -12.511719 6.949219 -13.328125 6.949219 -14.144531 C 7.03125 -15.453125 7.03125 -16.679688 7.03125 -17.988281 C 7.03125 -23.140625 7.03125 -28.375 7.03125 -33.527344 C 7.03125 -34.34375 7.03125 -35.242188 7.113281 -36.058594 C 7.195312 -36.796875 7.929688 -37.367188 8.667969 -37.285156 C 9.078125 -37.203125 9.484375 -37.125 9.894531 -36.878906 C 10.382812 -36.632812 10.710938 -36.222656 10.710938 -35.652344 C 10.792969 -34.996094 10.792969 -34.34375 10.792969 -33.769531 C 10.792969 -30.253906 10.792969 -26.738281 10.792969 -23.304688 C 10.792969 -22.324219 10.792969 -21.421875 10.792969 -20.441406 Z M 10.792969 -20.441406 "/></g></g></g></svg>