<svg xmlns="http://www.w3.org/2000/svg" xmlns:xlink="http://www.w3.org/1999/xlink" width="1080" zoomAndPan="magnify" viewBox="0 0 810 809.999993" height="1080" preserveAspectRatio="xMidYMid meet" version="1.0"><defs><g/><clipPath id="46aaf40b42"><path d="M 112.816406 263.726562 L 234 263.726562 L 234 369.621094 L 112.816406 369.621094 Z M 112.816406 263.726562 " clip-rule="nonzero"/></clipPath></defs><g clip-path="url(#46aaf40b42)"><path fill="#0089a7" d="M 140.585938 363.992188 C 141.402344 363.613281 142.714844 363.253906 143.738281 362.757812 C 144.460938 362.410156 145.082031 361.988281 145.515625 361.535156 C 145.820312 361.21875 146.316406 360.300781 145.863281 358.992188 C 145.367188 357.5625 143.40625 354.25 143.136719 353.796875 C 141.535156 351.144531 137.707031 347.035156 134.164062 345.816406 C 133.457031 345.574219 132.761719 345.421875 132.082031 345.378906 C 131.617188 343.148438 131.058594 340.980469 130.320312 338.871094 C 129.324219 336.042969 128.027344 333.332031 126.25 330.753906 C 123.519531 326.839844 120.445312 324.519531 118.664062 321.328125 C 117.910156 319.972656 117.445312 318.453125 117.398438 316.496094 C 125.3125 314.972656 133.09375 312.863281 140.902344 310.863281 L 144.085938 325.441406 C 144.296875 326.3125 144.550781 328.617188 145.019531 330.03125 C 145.304688 330.875 145.714844 331.507812 146.105469 331.855469 C 146.390625 332.109375 146.917969 332.398438 147.628906 332.472656 C 148.335938 332.5625 149.496094 332.472656 149.84375 332.472656 L 157.820312 332.1875 C 163.988281 331.734375 170.09375 331.3125 176.199219 330.726562 C 180.285156 330.332031 184.371094 329.867188 188.472656 329.25 C 193.039062 328.570312 197.578125 327.820312 202.058594 326.78125 C 205.070312 326.085938 208.058594 325.257812 211.011719 324.25 C 211.722656 324.007812 215.703125 322.925781 217.148438 322.113281 C 218.203125 321.523438 218.550781 320.695312 218.613281 320.214844 C 218.730469 319.21875 218.6875 318.105469 218.550781 316.945312 C 218.28125 314.71875 217.617188 312.308594 217.300781 310.441406 L 213.996094 290.621094 C 216.863281 287.625 219.757812 284.613281 222.515625 281.496094 C 224.839844 278.875 227.070312 276.179688 229.121094 273.363281 L 232.390625 268.53125 C 232.453125 268.441406 233.070312 267.519531 233.28125 267.144531 C 234.019531 265.863281 233.175781 264.796875 233.054688 264.675781 C 232.753906 264.359375 232.046875 263.953125 230.960938 263.9375 C 229.121094 263.921875 224.734375 264.917969 223.980469 265.007812 L 199.328125 268.183594 L 162.101562 271.527344 C 159.28125 271.84375 156.132812 271.722656 153.144531 271.980469 C 151.714844 272.097656 150.328125 272.296875 149.015625 272.640625 C 148.609375 272.746094 148.082031 273.03125 147.554688 273.515625 C 146.828125 274.191406 145.941406 275.441406 145.503906 275.894531 L 138.296875 283.679688 C 133.125 289.476562 128.011719 295.277344 123.066406 301.195312 C 119.765625 305.15625 116.523438 309.175781 113.359375 313.300781 C 112.921875 313.859375 112.859375 314.582031 113.101562 315.199219 L 113.117188 315.335938 C 113.175781 315.652344 113.3125 315.9375 113.492188 316.179688 C 113.492188 319.070312 114.171875 321.296875 115.257812 323.226562 C 117.097656 326.523438 120.25 328.933594 123.050781 332.96875 C 124.636719 335.242188 125.78125 337.652344 126.65625 340.152344 C 127.378906 342.230469 127.921875 344.382812 128.359375 346.582031 C 127.5 347.320312 126.730469 348.433594 126.128906 350.03125 L 125.375 353.570312 L 125.839844 359.5625 L 128.421875 367.621094 C 128.660156 368.179688 129.144531 368.570312 129.703125 368.71875 C 130.351562 369.230469 131.285156 369.277344 131.992188 368.78125 Z M 214.796875 318.890625 L 209.730469 320.589844 C 206.910156 321.554688 204.046875 322.351562 201.167969 323.015625 C 196.78125 324.023438 192.347656 324.761719 187.882812 325.425781 C 183.859375 326.027344 179.832031 326.492188 175.808594 326.871094 C 169.730469 327.457031 163.640625 327.863281 157.503906 328.316406 L 149.875 328.601562 L 148.578125 328.617188 L 147.808594 324.492188 L 144.628906 309.914062 C 145.984375 309.582031 147.339844 309.25 148.699219 308.933594 C 153.386719 307.835938 158.105469 306.871094 162.902344 306.207031 C 165.601562 305.832031 168.328125 305.589844 171.042969 305.394531 C 177.511719 304.972656 184.023438 304.898438 190.476562 304.371094 C 192.136719 304.234375 195.226562 304.492188 197.699219 304.25 C 199.265625 304.101562 200.625 303.738281 201.527344 303.152344 C 202.78125 302.339844 203.972656 301.328125 205.117188 300.214844 C 207.078125 298.316406 208.902344 296.117188 210.664062 294.160156 L 213.46875 311.058594 C 213.726562 312.640625 214.253906 314.640625 214.570312 316.554688 C 214.707031 317.351562 214.796875 318.152344 214.796875 318.890625 Z M 126.039062 303.648438 C 130.96875 297.761719 136.035156 291.992188 141.191406 286.226562 L 148.308594 278.542969 C 148.683594 278.152344 149.949219 276.648438 150.238281 276.300781 C 151.277344 276.046875 152.363281 275.910156 153.476562 275.820312 C 156.492188 275.5625 159.675781 275.667969 162.539062 275.351562 L 199.734375 272.007812 L 224.445312 268.832031 C 224.792969 268.785156 226.359375 268.546875 227.882812 268.289062 L 226 271.074219 C 224.023438 273.800781 221.867188 276.390625 219.621094 278.921875 C 216.230469 282.761719 212.625 286.449219 209.113281 290.140625 C 207.289062 292.054688 205.402344 294.386719 203.398438 296.480469 C 202.132812 297.789062 200.820312 298.996094 199.417969 299.914062 C 198.753906 300.351562 197.609375 300.410156 196.402344 300.472656 C 194.125 300.578125 191.609375 300.394531 190.160156 300.515625 C 183.722656 301.042969 177.238281 301.105469 170.785156 301.539062 C 167.96875 301.722656 165.164062 301.976562 162.359375 302.367188 C 157.445312 303.0625 152.605469 304.039062 147.808594 305.167969 C 138.191406 307.429688 128.738281 310.230469 119.085938 312.234375 C 121.363281 309.328125 123.6875 306.480469 126.039062 303.648438 Z M 135.402344 362.46875 L 133.636719 363.464844 C 132.914062 361.492188 132.371094 359.472656 131.976562 357.410156 C 131.722656 356.023438 131.527344 354.640625 131.390625 353.238281 Z M 137.074219 361.550781 L 132.898438 352.125 C 134.332031 353.570312 135.730469 355.089844 137.015625 356.6875 C 137.933594 357.832031 138.777344 359.023438 139.546875 360.257812 L 138.957031 360.511719 Z M 139.804688 355.785156 C 139.96875 356.054688 141.054688 358.089844 141.703125 359.324219 L 141.234375 359.519531 C 140.375 358.148438 139.441406 356.808594 138.417969 355.542969 C 136.667969 353.375 134.707031 351.355469 132.746094 349.429688 C 132.808594 349.445312 132.851562 349.445312 132.914062 349.472656 C 135.65625 350.40625 138.566406 353.722656 139.804688 355.785156 Z M 129.65625 358.765625 L 129.25 353.917969 L 129.535156 352.515625 C 129.671875 354.261719 129.882812 356.011719 130.214844 357.742188 C 130.636719 359.984375 131.253906 362.199219 132.054688 364.351562 L 131.539062 364.640625 Z M 129.65625 358.765625 " fill-opacity="1" fill-rule="evenodd"/></g><g fill="#0089a7" fill-opacity="1"><g transform="translate(154.675805, 422.040192)"><g><path d="M 26.640625 -16.5625 C 26.757812 -16.5625 26.757812 -16.5625 26.757812 -16.5625 C 26.757812 -11.929688 26.757812 -7.296875 26.871094 -2.664062 C 26.871094 -2.433594 26.871094 -2.085938 26.988281 -1.738281 C 26.988281 -1.160156 27.335938 -0.695312 27.914062 -0.347656 C 28.378906 0 28.957031 0.230469 29.535156 0.230469 C 32.546875 0.117188 35.558594 0.117188 38.570312 0.117188 C 39.265625 0.117188 40.078125 0.117188 40.773438 0 C 41.464844 0 41.929688 -0.464844 42.160156 -1.042969 C 42.394531 -1.390625 42.625 -1.851562 42.625 -2.199219 C 42.742188 -3.011719 42.742188 -3.707031 42.742188 -4.515625 C 42.742188 -9.613281 42.855469 -14.59375 42.742188 -19.691406 C 42.507812 -27.914062 42.855469 -36.136719 42.972656 -44.363281 C 42.972656 -44.59375 42.972656 -44.710938 42.972656 -44.824219 C 42.972656 -45.40625 43.089844 -45.984375 43.4375 -46.5625 C 44.128906 -47.605469 44.710938 -48.648438 45.289062 -49.574219 C 46.5625 -51.542969 47.722656 -53.398438 48.761719 -55.367188 C 51.890625 -61.15625 55.714844 -66.601562 59.882812 -71.699219 C 61.15625 -73.203125 62.429688 -74.59375 63.820312 -75.867188 C 64.402344 -76.445312 64.863281 -77.027344 65.441406 -77.488281 C 65.675781 -77.71875 65.789062 -77.953125 65.90625 -78.183594 C 66.253906 -78.648438 66.253906 -79.109375 66.253906 -79.574219 C 66.253906 -79.921875 65.90625 -80.5 65.558594 -80.5 C 63.9375 -80.847656 62.316406 -80.847656 60.695312 -80.5 C 60.578125 -80.5 60.347656 -80.5 60.230469 -80.382812 C 58.726562 -79.691406 57.335938 -78.761719 56.410156 -77.375 C 55.019531 -75.402344 53.628906 -73.550781 52.355469 -71.464844 C 51.425781 -69.960938 50.386719 -68.453125 49.34375 -67.066406 C 48.300781 -65.558594 47.375 -64.054688 46.332031 -62.546875 C 44.363281 -59.765625 42.394531 -56.988281 40.308594 -54.207031 C 39.960938 -53.746094 39.496094 -53.28125 39.148438 -52.816406 C 38.800781 -52.46875 37.875 -52.46875 37.527344 -52.816406 C 37.296875 -53.050781 37.066406 -53.164062 36.832031 -53.398438 C 35.675781 -54.902344 34.632812 -56.640625 33.707031 -58.261719 C 32.085938 -61.15625 30.460938 -64.054688 28.839844 -66.832031 C 27.105469 -69.960938 25.945312 -72.738281 24.902344 -76.445312 C 24.671875 -77.257812 24.441406 -78.066406 24.09375 -78.878906 C 23.628906 -79.921875 22.816406 -80.617188 21.660156 -80.730469 C 20.5 -80.730469 19.34375 -80.730469 18.070312 -80.730469 C 14.480469 -80.730469 10.886719 -80.730469 7.414062 -81.425781 C 6.140625 -81.542969 4.980469 -81.542969 3.824219 -81.542969 C 3.476562 -81.425781 3.242188 -81.425781 2.894531 -81.3125 C 2.433594 -81.195312 1.738281 -79.921875 1.851562 -79.457031 C 1.96875 -79.226562 1.96875 -78.878906 2.199219 -78.648438 C 3.242188 -76.679688 4.402344 -74.710938 5.675781 -72.972656 C 8.6875 -68.570312 11.351562 -64.167969 13.898438 -59.535156 C 14.824219 -57.796875 15.867188 -56.175781 16.910156 -54.554688 C 18.996094 -51.3125 20.847656 -47.835938 22.816406 -44.59375 C 23.859375 -42.855469 24.671875 -41.117188 25.480469 -39.382812 C 25.714844 -38.800781 25.828125 -38.222656 25.828125 -37.644531 C 25.945312 -35.789062 26.0625 -34.054688 26.523438 -32.316406 C 26.757812 -31.390625 26.640625 -30.460938 26.640625 -29.535156 C 26.640625 -25.25 26.640625 -20.964844 26.640625 -16.5625 Z M 37.644531 -24.207031 C 37.644531 -18.648438 37.644531 -13.089844 37.644531 -7.644531 C 37.644531 -6.949219 37.644531 -6.371094 37.527344 -5.792969 C 37.414062 -5.558594 37.296875 -5.210938 36.949219 -5.097656 C 36.601562 -4.980469 36.136719 -4.632812 35.789062 -4.515625 C 34.863281 -4.402344 33.9375 -4.402344 33.125 -4.632812 C 32.546875 -4.75 31.738281 -5.675781 31.621094 -6.253906 C 31.621094 -6.832031 31.503906 -7.414062 31.503906 -7.992188 C 31.503906 -12.507812 31.503906 -17.027344 31.503906 -21.429688 C 31.390625 -25.25 31.390625 -28.957031 31.390625 -32.664062 C 31.390625 -34.167969 31.273438 -35.675781 31.042969 -37.179688 C 30.808594 -37.992188 30.695312 -38.917969 30.695312 -39.84375 C 30.578125 -41.003906 30.230469 -42.160156 29.652344 -43.203125 C 28.609375 -45.171875 27.566406 -47.257812 26.410156 -49.109375 C 24.554688 -52.355469 22.703125 -55.597656 20.617188 -58.726562 C 20.386719 -59.074219 20.039062 -59.417969 19.921875 -59.765625 C 17.488281 -64.285156 14.824219 -68.570312 12.160156 -72.972656 C 11.929688 -73.320312 11.816406 -73.78125 11.699219 -74.246094 C 11.582031 -74.476562 11.929688 -75.171875 12.277344 -75.289062 C 12.507812 -75.402344 12.855469 -75.519531 13.089844 -75.519531 C 15.058594 -75.636719 17.027344 -75.75 18.878906 -75.519531 C 19.226562 -75.519531 19.460938 -75.402344 19.691406 -75.171875 C 20.039062 -75.058594 20.269531 -74.824219 20.386719 -74.59375 C 20.5 -74.015625 20.617188 -73.433594 20.734375 -72.855469 C 21.082031 -70.308594 22.007812 -67.875 23.164062 -65.675781 C 25.132812 -62.082031 27.21875 -58.609375 29.1875 -55.132812 C 30.347656 -53.050781 31.621094 -51.082031 33.242188 -49.226562 C 34.167969 -48.300781 34.980469 -47.140625 35.789062 -46.097656 C 36.136719 -45.753906 36.371094 -45.40625 36.601562 -45.058594 C 37.179688 -44.128906 37.644531 -43.203125 37.644531 -42.160156 C 37.644531 -40.078125 37.644531 -37.992188 37.644531 -35.90625 C 37.644531 -31.96875 37.644531 -28.03125 37.644531 -24.207031 Z M 37.644531 -24.207031 "/></g></g></g><g fill="#0089a7" fill-opacity="1"><g transform="translate(222.199654, 422.040192)"><g><path d="M 55.480469 -29.074219 C 55.480469 -31.042969 55.480469 -34.054688 55.480469 -37.066406 C 55.597656 -42.277344 55.597656 -47.488281 55.597656 -52.816406 C 55.597656 -53.511719 55.480469 -54.207031 55.367188 -55.019531 C 55.25 -56.0625 54.671875 -56.988281 53.628906 -57.449219 C 52.816406 -57.796875 52.007812 -58.144531 51.082031 -58.144531 C 48.648438 -58.144531 46.214844 -58.144531 43.898438 -58.144531 C 43.550781 -58.144531 43.320312 -58.03125 42.972656 -58.03125 C 42.160156 -57.914062 41.234375 -57.101562 41.117188 -56.292969 C 40.773438 -53.746094 40.425781 -51.3125 40.425781 -48.761719 C 40.425781 -42.742188 40.425781 -36.71875 40.308594 -30.808594 C 40.308594 -28.957031 40.308594 -27.105469 40.191406 -25.367188 C 39.960938 -22.816406 39.960938 -20.269531 39.84375 -17.722656 C 39.84375 -16.679688 39.960938 -15.636719 39.84375 -14.59375 C 39.730469 -13.4375 39.148438 -12.394531 38.109375 -11.582031 C 36.949219 -10.65625 35.675781 -9.84375 34.402344 -9.152344 C 33.589844 -8.6875 32.78125 -8.339844 31.851562 -8.109375 C 29.652344 -7.644531 27.453125 -7.414062 25.25 -7.644531 C 24.441406 -7.761719 23.746094 -7.875 23.050781 -8.109375 C 21.542969 -8.6875 20.5 -9.613281 20.269531 -11.351562 C 20.152344 -12.507812 20.039062 -13.785156 20.039062 -14.941406 C 20.039062 -18.878906 20.039062 -22.703125 20.039062 -26.640625 C 20.039062 -34.054688 20.152344 -41.582031 20.386719 -49.109375 C 20.386719 -50.5 20.386719 -52.007812 20.269531 -53.511719 C 20.269531 -54.4375 19.921875 -55.367188 19.574219 -56.175781 C 19.34375 -56.640625 18.878906 -57.101562 18.417969 -57.449219 C 17.722656 -57.683594 17.027344 -58.03125 16.214844 -58.03125 C 13.898438 -58.144531 11.46875 -58.144531 9.035156 -58.144531 C 8.570312 -58.144531 8.222656 -58.144531 7.761719 -58.144531 C 6.949219 -58.03125 6.371094 -57.566406 5.90625 -56.871094 C 5.558594 -56.292969 5.328125 -55.597656 5.328125 -54.785156 C 5.328125 -50.734375 5.210938 -46.679688 4.980469 -42.625 C 4.980469 -42.277344 4.980469 -41.8125 4.980469 -41.351562 C 4.863281 -37.875 4.980469 -34.402344 4.75 -31.042969 C 4.402344 -24.671875 4.632812 -18.417969 4.515625 -12.160156 C 4.402344 -10.773438 4.75 -9.496094 5.097656 -8.222656 C 5.328125 -7.644531 5.558594 -7.066406 5.90625 -6.601562 C 7.644531 -4.515625 9.613281 -2.664062 11.816406 -1.160156 C 12.507812 -0.695312 13.089844 -0.347656 13.785156 -0.117188 C 15.519531 0.230469 17.257812 0.8125 19.113281 0.925781 C 21.082031 1.160156 22.933594 1.273438 24.902344 1.160156 C 25.828125 1.160156 26.640625 0.925781 27.566406 0.578125 C 29.882812 -0.347656 32.085938 -1.621094 34.167969 -3.242188 C 35.210938 -4.054688 36.136719 -4.980469 37.179688 -5.792969 C 37.527344 -6.023438 37.992188 -6.253906 38.339844 -6.488281 C 38.6875 -6.71875 39.265625 -6.371094 39.382812 -5.90625 C 39.382812 -4.863281 39.496094 -3.824219 39.496094 -2.78125 C 39.496094 -2.199219 39.730469 -1.621094 39.960938 -1.042969 C 40.191406 -0.464844 40.539062 -0.117188 41.234375 0.117188 C 41.582031 0.230469 42.046875 0.347656 42.507812 0.347656 C 45.984375 0.347656 49.34375 0.347656 52.816406 0.347656 C 53.28125 0.347656 53.746094 0.117188 54.089844 0 C 54.671875 -0.117188 55.25 -0.695312 55.367188 -1.160156 C 55.367188 -1.503906 55.480469 -1.738281 55.480469 -2.085938 C 55.597656 -4.75 55.714844 -7.414062 55.714844 -10.078125 C 55.597656 -16.101562 55.480469 -22.125 55.480469 -29.074219 Z M 50.617188 -28.261719 C 50.617188 -25.597656 50.734375 -22.933594 50.734375 -20.152344 C 50.847656 -15.867188 50.734375 -11.582031 50.734375 -7.179688 C 50.734375 -6.832031 50.617188 -6.371094 50.5 -5.90625 C 50.386719 -5.328125 49.921875 -4.863281 49.34375 -4.632812 C 49.109375 -4.515625 48.761719 -4.402344 48.53125 -4.402344 C 47.953125 -4.402344 47.375 -4.402344 46.679688 -4.402344 C 45.867188 -4.515625 44.941406 -5.210938 44.824219 -6.023438 C 44.710938 -6.488281 44.710938 -6.949219 44.710938 -7.414062 C 44.710938 -12.742188 44.710938 -18.183594 44.710938 -23.511719 C 44.824219 -24.554688 44.824219 -25.597656 44.941406 -26.640625 C 45.40625 -28.726562 45.289062 -30.808594 45.40625 -32.894531 C 45.40625 -38.570312 45.519531 -44.246094 45.519531 -49.921875 C 45.519531 -50.5 45.519531 -51.082031 45.753906 -51.660156 C 45.984375 -52.238281 46.445312 -52.585938 47.027344 -52.816406 C 47.605469 -53.050781 48.183594 -52.933594 48.761719 -52.816406 C 49.574219 -52.816406 50.5 -51.890625 50.617188 -51.082031 C 50.734375 -50.617188 50.734375 -50.269531 50.734375 -49.804688 C 50.734375 -45.867188 50.734375 -42.046875 50.734375 -38.109375 C 50.734375 -34.863281 50.734375 -31.503906 50.734375 -28.261719 C 50.617188 -28.261719 50.617188 -28.261719 50.617188 -28.261719 Z M 15.058594 -29.535156 C 15.058594 -26.410156 15.058594 -23.28125 15.058594 -20.152344 C 14.941406 -16.679688 15.289062 -13.203125 15.289062 -9.84375 C 15.40625 -8.6875 15.984375 -7.527344 15.753906 -6.253906 C 15.636719 -5.90625 15.40625 -5.792969 15.171875 -5.792969 C 14.710938 -5.90625 14.246094 -6.023438 13.898438 -6.253906 C 12.742188 -6.949219 11.816406 -7.875 10.886719 -8.917969 C 10.191406 -9.730469 9.730469 -10.65625 9.613281 -11.699219 C 9.613281 -12.625 9.613281 -13.550781 9.613281 -14.363281 C 9.613281 -22.933594 9.613281 -31.390625 9.613281 -39.960938 C 9.613281 -41.699219 9.730469 -43.550781 10.078125 -45.289062 C 10.425781 -46.5625 10.425781 -47.953125 10.425781 -49.226562 C 10.425781 -50.039062 10.425781 -50.734375 10.65625 -51.425781 C 10.773438 -51.890625 11.003906 -52.238281 11.351562 -52.585938 C 12.160156 -53.164062 13.550781 -53.050781 14.363281 -52.46875 C 14.59375 -52.238281 14.710938 -52.007812 14.824219 -51.773438 C 15.289062 -50.847656 15.519531 -49.804688 15.519531 -48.761719 C 15.289062 -44.59375 15.40625 -40.425781 15.171875 -36.253906 C 14.941406 -33.9375 15.058594 -31.738281 14.941406 -29.535156 C 14.941406 -29.535156 15.058594 -29.535156 15.058594 -29.535156 Z M 15.058594 -29.535156 "/></g></g></g><g fill="#0089a7" fill-opacity="1"><g transform="translate(282.079279, 422.040192)"><g><path d="M 56.523438 -19.226562 C 56.523438 -24.671875 56.523438 -30.230469 56.640625 -35.789062 C 56.640625 -41.582031 56.640625 -47.488281 56.640625 -53.28125 C 56.640625 -53.976562 56.640625 -54.785156 56.523438 -55.480469 C 56.292969 -57.683594 55.480469 -58.378906 53.398438 -58.726562 C 53.28125 -58.726562 53.164062 -58.726562 52.933594 -58.726562 C 49.921875 -58.726562 47.027344 -58.726562 44.015625 -58.726562 C 42.855469 -58.609375 42.046875 -58.03125 41.582031 -56.988281 C 41.117188 -56.0625 40.773438 -55.019531 40.773438 -53.976562 C 40.65625 -50.734375 40.539062 -47.375 40.539062 -44.128906 C 40.425781 -39.148438 40.539062 -34.285156 40.425781 -29.304688 C 40.425781 -28.144531 40.539062 -26.871094 40.308594 -25.714844 C 39.84375 -23.511719 39.960938 -21.3125 39.960938 -18.996094 C 39.84375 -17.257812 39.84375 -15.40625 39.730469 -13.667969 C 39.730469 -12.394531 39.148438 -11.351562 38.109375 -10.539062 C 36.484375 -9.265625 34.75 -8.109375 32.78125 -7.414062 C 31.738281 -6.949219 30.695312 -6.949219 29.769531 -6.601562 C 28.261719 -6.140625 26.871094 -6.023438 25.367188 -6.140625 C 23.746094 -6.140625 22.355469 -6.488281 21.082031 -7.179688 C 19.921875 -7.761719 19.113281 -8.6875 19.113281 -10.078125 C 19.113281 -10.773438 18.996094 -11.582031 18.996094 -12.277344 C 18.878906 -15.753906 18.878906 -19.113281 18.765625 -22.585938 C 18.765625 -26.988281 18.765625 -31.273438 18.878906 -35.558594 C 19.113281 -41.464844 19.113281 -47.257812 19.113281 -53.164062 C 19.113281 -53.859375 19.113281 -54.554688 18.996094 -55.367188 C 18.648438 -57.21875 17.722656 -58.261719 15.867188 -58.609375 C 15.519531 -58.726562 15.171875 -58.726562 14.941406 -58.726562 C 11.816406 -58.726562 8.6875 -58.726562 5.558594 -58.726562 C 5.328125 -58.726562 5.210938 -58.726562 5.097656 -58.726562 C 4.285156 -58.609375 3.359375 -57.683594 3.128906 -56.988281 C 3.128906 -56.523438 3.011719 -56.0625 3.011719 -55.597656 C 2.894531 -52.46875 2.894531 -49.34375 2.78125 -46.214844 C 2.78125 -41.8125 2.78125 -37.527344 2.664062 -33.242188 C 2.664062 -28.726562 2.546875 -24.207031 2.433594 -19.691406 C 2.433594 -19.113281 2.433594 -18.53125 2.316406 -17.953125 C 2.085938 -15.867188 2.199219 -13.785156 2.199219 -11.699219 C 2.085938 -9.960938 2.433594 -8.457031 2.894531 -6.832031 C 3.359375 -5.675781 3.9375 -4.632812 4.863281 -3.824219 C 6.140625 -2.546875 7.527344 -1.390625 8.804688 -0.230469 C 9.960938 0.695312 11.351562 1.390625 12.855469 1.738281 C 14.480469 2.199219 16.214844 2.78125 18.070312 2.894531 C 18.996094 2.894531 19.804688 3.011719 20.734375 3.242188 C 22.703125 3.589844 24.554688 3.242188 26.410156 2.664062 C 28.03125 2.085938 29.535156 1.390625 30.925781 0.464844 C 32.664062 -0.695312 34.285156 -1.96875 35.90625 -3.359375 C 36.484375 -3.9375 37.179688 -4.515625 37.992188 -4.980469 C 38.453125 -5.328125 39.265625 -4.980469 39.382812 -4.402344 C 39.382812 -3.9375 39.496094 -3.476562 39.496094 -3.011719 C 39.613281 -0.8125 39.613281 1.390625 39.496094 3.707031 C 39.496094 4.402344 39.496094 5.210938 39.382812 5.90625 C 38.917969 7.644531 38.917969 9.496094 38.917969 11.234375 C 38.917969 12.972656 38.917969 14.59375 38.917969 16.214844 C 38.917969 17.605469 38.570312 18.878906 38.109375 20.152344 C 37.527344 21.542969 36.832031 22.816406 35.789062 23.859375 C 35.445312 24.207031 35.097656 24.554688 34.863281 24.902344 C 34.285156 25.597656 34.632812 26.871094 35.558594 27.105469 C 35.90625 27.21875 36.371094 27.335938 36.832031 27.335938 C 38.339844 27.566406 39.84375 27.453125 41.351562 27.335938 C 43.089844 27.335938 44.824219 26.757812 46.5625 26.175781 C 49.804688 24.902344 52.703125 23.050781 54.671875 20.039062 C 55.25 19.113281 55.597656 18.183594 55.714844 17.140625 C 55.828125 16.910156 55.828125 16.5625 55.828125 16.214844 C 55.945312 12.625 56.175781 9.152344 56.292969 5.558594 C 56.292969 3.242188 56.292969 1.042969 56.410156 -1.273438 C 56.410156 -3.589844 56.523438 -6.023438 56.523438 -8.457031 C 56.523438 -12.046875 56.523438 -15.636719 56.523438 -19.226562 Z M 44.941406 -17.027344 C 45.058594 -20.964844 44.941406 -24.671875 45.058594 -28.378906 C 45.289062 -35.097656 45.289062 -41.8125 45.289062 -48.53125 C 45.289062 -49.34375 45.289062 -50.039062 45.40625 -50.847656 C 45.40625 -51.542969 45.753906 -52.238281 46.214844 -52.816406 C 46.445312 -53.28125 46.792969 -53.511719 47.257812 -53.628906 C 48.183594 -53.859375 48.996094 -53.746094 49.921875 -53.628906 C 50.5 -53.398438 51.3125 -52.585938 51.425781 -52.007812 C 51.425781 -51.773438 51.542969 -51.425781 51.542969 -51.195312 C 51.542969 -50.152344 51.542969 -49.109375 51.542969 -48.070312 C 51.542969 -29.652344 51.542969 -11.234375 51.425781 7.066406 C 51.425781 7.179688 51.425781 7.414062 51.425781 7.527344 C 51.660156 10.425781 51.195312 13.203125 50.617188 15.984375 C 50.5 16.332031 50.269531 16.796875 50.039062 17.140625 C 49.691406 17.605469 49.34375 18.070312 48.878906 18.53125 C 48.417969 19.113281 47.722656 19.460938 47.027344 19.574219 C 46.214844 19.804688 44.941406 19.460938 44.59375 18.878906 C 44.363281 18.648438 44.246094 18.300781 44.128906 18.070312 C 43.898438 17.375 43.78125 16.679688 43.78125 15.867188 C 43.78125 14.246094 43.898438 12.625 44.015625 11.003906 C 44.246094 8.109375 44.363281 5.328125 44.363281 2.433594 C 44.363281 -0.230469 44.363281 -2.894531 44.476562 -5.558594 C 44.476562 -6.949219 44.59375 -8.222656 44.710938 -9.613281 C 44.941406 -12.160156 44.941406 -14.710938 44.941406 -17.027344 Z M 13.785156 -32.085938 C 13.898438 -24.902344 13.667969 -18.648438 13.898438 -12.394531 C 14.015625 -10.191406 14.132812 -8.222656 14.59375 -6.140625 C 14.710938 -5.558594 14.824219 -4.980469 14.59375 -4.402344 C 14.480469 -4.054688 14.246094 -3.824219 14.015625 -3.824219 C 13.320312 -3.824219 12.742188 -4.054688 12.277344 -4.402344 C 11.003906 -5.097656 9.84375 -6.140625 8.917969 -7.296875 C 8.222656 -8.109375 7.761719 -9.035156 7.527344 -10.078125 C 7.414062 -11.121094 7.179688 -12.160156 7.179688 -13.089844 C 7.066406 -14.363281 7.066406 -15.519531 7.179688 -16.679688 C 7.296875 -20.617188 7.179688 -24.441406 7.414062 -28.378906 C 7.527344 -30.230469 7.527344 -32.199219 7.527344 -34.167969 C 7.527344 -39.035156 7.527344 -44.015625 7.527344 -48.878906 C 7.527344 -49.804688 7.644531 -50.734375 7.761719 -51.542969 C 7.761719 -52.007812 8.109375 -52.355469 8.339844 -52.816406 C 8.457031 -53.050781 8.6875 -53.28125 8.917969 -53.398438 C 10.191406 -53.859375 11.582031 -53.859375 12.855469 -53.511719 C 13.320312 -53.398438 13.550781 -53.050781 13.785156 -52.585938 C 13.785156 -52.238281 13.898438 -52.007812 13.898438 -51.660156 C 14.015625 -49.804688 14.015625 -47.835938 14.015625 -45.867188 C 14.015625 -41.003906 13.898438 -36.023438 13.785156 -32.085938 Z M 13.785156 -32.085938 "/></g></g></g><g fill="#0089a7" fill-opacity="1"><g transform="translate(342.769659, 422.040192)"><g><path d="M 20.5 -29.304688 C 20.5 -31.851562 20.5 -34.402344 20.5 -36.949219 C 20.5 -42.160156 20.5 -47.375 20.5 -52.703125 C 20.5 -53.511719 20.5 -54.4375 20.269531 -55.367188 C 20.152344 -56.410156 19.574219 -57.21875 18.417969 -57.683594 C 17.722656 -58.03125 17.027344 -58.261719 16.332031 -58.261719 C 13.320312 -58.261719 10.308594 -58.261719 7.414062 -58.261719 C 7.179688 -58.261719 7.066406 -58.261719 6.949219 -58.144531 C 6.601562 -58.144531 6.371094 -58.03125 6.140625 -57.796875 C 5.210938 -57.21875 4.515625 -56.410156 4.402344 -55.367188 C 4.167969 -54.207031 4.167969 -52.933594 3.9375 -51.773438 C 3.707031 -50.152344 3.707031 -48.53125 3.9375 -46.910156 C 4.402344 -44.941406 4.402344 -42.972656 4.402344 -41.117188 C 4.402344 -37.179688 4.402344 -33.359375 4.402344 -29.421875 C 4.632812 -22.125 4.515625 -14.824219 4.285156 -7.414062 C 4.285156 -5.792969 4.285156 -4.167969 4.402344 -2.546875 C 4.402344 -1.96875 4.75 -1.390625 5.210938 -1.042969 C 5.90625 -0.578125 6.488281 -0.230469 7.296875 -0.117188 C 9.960938 -0.117188 12.625 -0.117188 15.289062 -0.117188 C 16.101562 -0.117188 16.796875 -0.117188 17.605469 -0.117188 C 18.183594 -0.230469 18.648438 -0.578125 19.113281 -1.042969 C 19.921875 -1.96875 20.386719 -3.011719 20.5 -4.285156 C 20.5 -5.328125 20.5 -6.371094 20.5 -7.414062 C 20.5 -14.710938 20.5 -22.007812 20.5 -29.304688 Z M 15.519531 -29.421875 C 15.519531 -24.902344 15.519531 -20.5 15.519531 -15.984375 C 15.519531 -14.015625 15.519531 -12.046875 15.636719 -10.191406 C 15.636719 -8.917969 15.519531 -7.761719 15.171875 -6.601562 C 15.058594 -5.792969 14.480469 -5.328125 13.785156 -5.097656 C 12.855469 -4.75 12.046875 -4.632812 11.121094 -4.863281 C 10.078125 -5.210938 9.035156 -6.488281 9.152344 -7.644531 C 9.152344 -7.761719 9.152344 -7.875 9.152344 -8.109375 C 9.613281 -10.886719 9.613281 -13.667969 9.613281 -16.5625 C 9.613281 -20.847656 9.613281 -25.25 9.613281 -29.535156 C 9.613281 -31.621094 9.496094 -33.707031 9.152344 -35.789062 C 9.035156 -36.601562 9.035156 -37.527344 9.035156 -38.453125 C 8.917969 -42.160156 8.917969 -45.867188 8.804688 -49.691406 C 8.804688 -50.152344 8.804688 -50.5 8.917969 -50.964844 C 9.035156 -51.660156 9.265625 -52.121094 9.84375 -52.46875 C 10.078125 -52.585938 10.308594 -52.816406 10.65625 -52.816406 C 11.816406 -53.164062 12.972656 -53.28125 14.132812 -53.050781 C 14.59375 -52.933594 14.941406 -52.703125 15.171875 -52.121094 C 15.289062 -51.542969 15.519531 -51.082031 15.636719 -50.5 C 15.753906 -49.457031 15.753906 -48.417969 15.753906 -47.375 C 15.753906 -43.898438 15.636719 -40.425781 15.636719 -37.066406 C 15.519531 -34.515625 15.519531 -31.96875 15.40625 -29.421875 C 15.40625 -29.421875 15.519531 -29.421875 15.519531 -29.421875 Z M 4.402344 -70.539062 C 4.402344 -70.074219 4.402344 -69.613281 4.402344 -69.148438 C 4.515625 -67.644531 5.210938 -66.371094 6.488281 -65.328125 C 7.527344 -64.515625 8.6875 -63.9375 10.078125 -63.589844 C 10.773438 -63.472656 11.46875 -63.242188 12.277344 -63.125 C 12.625 -63.125 13.089844 -63.125 13.550781 -63.125 C 14.710938 -63.472656 15.867188 -63.707031 17.027344 -64.054688 C 17.953125 -64.402344 18.878906 -65.09375 19.34375 -66.023438 C 20.269531 -67.644531 20.617188 -69.382812 20.386719 -71.234375 C 20.386719 -71.582031 20.269531 -72.046875 20.039062 -72.507812 C 18.648438 -75.636719 15.984375 -77.140625 12.625 -77.375 C 10.773438 -77.488281 9.152344 -76.910156 7.527344 -76.097656 C 6.488281 -75.519531 5.558594 -74.710938 5.097656 -73.550781 C 4.632812 -72.507812 4.402344 -71.582031 4.402344 -70.539062 Z M 12.046875 -71.582031 C 12.855469 -71.699219 13.785156 -71.117188 14.015625 -70.539062 C 14.132812 -70.421875 14.132812 -70.308594 14.132812 -70.191406 C 14.132812 -70.074219 14.132812 -69.84375 14.132812 -69.730469 C 13.785156 -68.917969 12.625 -68.453125 11.929688 -68.6875 C 11.699219 -68.800781 11.351562 -69.035156 11.121094 -69.148438 C 10.539062 -69.613281 10.539062 -70.65625 11.121094 -71.117188 C 11.46875 -71.351562 11.816406 -71.464844 12.046875 -71.582031 Z M 12.046875 -71.582031 "/></g></g></g><g fill="#0089a7" fill-opacity="1"><g transform="translate(367.902886, 422.040192)"><g><path d="M 4.75 -28.957031 C 4.75 -21.3125 4.515625 -13.667969 4.632812 -6.140625 C 4.632812 -5.210938 4.632812 -4.285156 4.632812 -3.359375 C 4.632812 -2.316406 5.210938 -1.390625 5.90625 -0.695312 C 6.371094 -0.230469 6.949219 0 7.527344 0.117188 C 7.644531 0.117188 7.875 0.117188 7.992188 0.117188 C 11.234375 0.117188 14.59375 0.117188 17.835938 0.117188 C 19.34375 0.117188 20.847656 -0.925781 20.847656 -2.664062 C 20.734375 -7.296875 20.847656 -11.929688 20.5 -16.5625 C 20.386719 -18.183594 20.152344 -19.804688 20.152344 -21.429688 C 20.152344 -26.871094 20.039062 -32.199219 20.039062 -37.644531 C 20.039062 -38.917969 20.152344 -40.308594 20.152344 -41.582031 C 20.152344 -42.507812 20.386719 -43.4375 20.617188 -44.246094 C 20.847656 -44.941406 21.3125 -45.636719 21.777344 -46.097656 C 21.890625 -46.214844 22.007812 -46.332031 22.125 -46.445312 C 24.441406 -48.300781 26.0625 -49.109375 28.839844 -49.804688 C 31.15625 -50.386719 33.359375 -50.269531 35.445312 -49.34375 C 36.484375 -48.878906 37.296875 -48.300781 37.875 -47.375 C 38.800781 -45.867188 39.613281 -44.246094 39.730469 -42.394531 C 39.84375 -41.464844 39.960938 -40.65625 39.960938 -39.730469 C 39.960938 -37.066406 39.960938 -34.402344 39.960938 -31.621094 C 39.84375 -23.398438 39.84375 -15.171875 39.730469 -6.949219 C 39.730469 -6.601562 39.730469 -6.140625 39.730469 -5.675781 C 39.730469 -4.402344 40.078125 -3.242188 40.65625 -2.199219 C 41.117188 -1.621094 41.582031 -1.042969 42.277344 -0.695312 C 43.089844 -0.230469 43.898438 0.117188 44.824219 0.117188 C 47.488281 0.117188 50.152344 0.117188 52.933594 0.117188 C 53.164062 0.117188 53.511719 0 53.746094 0 C 54.671875 -0.117188 55.714844 -1.160156 55.828125 -2.085938 C 56.0625 -3.128906 56.0625 -4.167969 56.0625 -5.210938 C 55.828125 -12.742188 55.828125 -20.152344 55.945312 -27.683594 C 55.945312 -31.738281 55.945312 -35.789062 55.945312 -39.730469 C 55.945312 -42.625 55.714844 -45.40625 55.019531 -48.183594 C 54.324219 -50.964844 53.050781 -53.164062 50.847656 -54.902344 C 49.804688 -55.597656 48.878906 -56.292969 47.835938 -56.871094 C 46.214844 -57.566406 44.476562 -58.144531 42.625 -58.144531 C 40.425781 -58.144531 38.109375 -58.261719 36.023438 -57.566406 C 35.558594 -57.335938 35.097656 -57.335938 34.632812 -57.335938 C 33.011719 -57.21875 31.503906 -56.523438 29.882812 -56.0625 C 28.609375 -55.714844 27.335938 -55.132812 26.292969 -54.4375 C 24.671875 -53.511719 23.164062 -52.46875 21.660156 -51.542969 C 21.429688 -51.3125 20.734375 -51.660156 20.734375 -52.121094 C 20.734375 -52.816406 20.617188 -53.628906 20.617188 -54.324219 C 20.617188 -54.785156 20.5 -55.25 20.5 -55.714844 C 20.269531 -56.523438 19.34375 -57.335938 18.648438 -57.449219 C 18.300781 -57.449219 17.953125 -57.449219 17.722656 -57.449219 C 14.246094 -57.449219 10.773438 -57.449219 7.414062 -57.449219 C 7.066406 -57.449219 6.832031 -57.449219 6.488281 -57.335938 C 6.140625 -57.21875 5.675781 -57.101562 5.445312 -56.640625 C 5.097656 -55.945312 4.75 -55.25 4.75 -54.554688 C 4.75 -52.703125 4.75 -50.964844 4.75 -49.109375 C 4.75 -45.984375 4.75 -42.855469 4.75 -39.730469 C 4.863281 -36.136719 4.75 -32.546875 4.75 -28.957031 Z M 44.941406 -25.480469 C 44.941406 -30.230469 44.941406 -35.097656 44.941406 -39.84375 C 44.941406 -40.773438 44.941406 -41.582031 44.941406 -42.507812 C 44.941406 -44.824219 44.246094 -46.910156 43.089844 -48.878906 C 42.625 -49.804688 41.8125 -50.617188 41.464844 -51.542969 C 41.464844 -51.890625 41.699219 -52.585938 42.046875 -52.703125 C 42.160156 -52.703125 42.277344 -52.816406 42.507812 -52.816406 C 42.855469 -52.816406 43.4375 -52.816406 43.78125 -52.703125 C 45.171875 -52.238281 46.5625 -51.542969 47.722656 -50.5 C 48.417969 -49.921875 48.878906 -49.226562 49.34375 -48.417969 C 49.804688 -47.257812 50.269531 -46.214844 50.386719 -44.941406 C 50.847656 -42.160156 51.195312 -39.382812 51.195312 -36.484375 C 51.082031 -33.242188 51.195312 -29.882812 51.082031 -26.640625 C 50.964844 -21.542969 51.082031 -16.449219 51.082031 -11.351562 C 51.082031 -10.191406 51.082031 -8.917969 51.082031 -7.761719 C 50.964844 -7.296875 50.964844 -6.832031 50.847656 -6.371094 C 50.734375 -5.792969 50.039062 -4.980469 49.457031 -4.863281 C 48.417969 -4.632812 47.375 -4.632812 46.332031 -4.980469 C 45.519531 -5.210938 45.058594 -5.90625 45.058594 -6.601562 C 44.941406 -7.644531 44.941406 -8.6875 44.941406 -9.730469 C 44.941406 -14.941406 44.941406 -20.269531 44.941406 -25.480469 Z M 15.289062 -28.957031 C 15.289062 -26.0625 15.40625 -23.28125 15.519531 -20.386719 C 15.519531 -16.332031 15.519531 -12.394531 15.636719 -8.339844 C 15.636719 -7.761719 15.519531 -7.066406 15.40625 -6.488281 C 15.289062 -5.90625 14.824219 -5.445312 14.363281 -5.210938 C 13.550781 -4.75 12.625 -4.632812 11.699219 -4.863281 C 10.191406 -5.097656 9.265625 -6.140625 9.152344 -7.527344 C 9.152344 -10.539062 9.035156 -13.550781 9.613281 -16.5625 C 9.84375 -17.722656 9.84375 -18.878906 9.84375 -20.039062 C 9.960938 -21.890625 9.960938 -23.628906 9.960938 -25.480469 C 9.960938 -32.78125 9.960938 -40.191406 9.960938 -47.488281 C 9.960938 -48.648438 9.960938 -49.921875 10.078125 -51.082031 C 10.191406 -52.121094 11.234375 -52.933594 12.277344 -52.816406 C 12.855469 -52.703125 13.4375 -52.585938 14.015625 -52.238281 C 14.710938 -51.890625 15.171875 -51.3125 15.171875 -50.5 C 15.289062 -49.574219 15.289062 -48.648438 15.289062 -47.835938 C 15.289062 -42.855469 15.289062 -37.875 15.289062 -33.011719 C 15.289062 -31.621094 15.289062 -30.347656 15.289062 -28.957031 Z M 15.289062 -28.957031 "/></g></g></g><g fill="#0089a7" fill-opacity="1"><g transform="translate(428.129996, 422.040192)"><g><path d="M 28.726562 -59.304688 C 28.03125 -59.1875 27.21875 -59.1875 26.292969 -59.1875 C 24.324219 -59.1875 22.355469 -58.839844 20.5 -58.378906 C 17.722656 -57.683594 15.171875 -56.640625 12.972656 -54.671875 C 12.625 -54.324219 12.277344 -54.089844 11.816406 -53.859375 C 9.84375 -52.46875 8.457031 -50.5 7.414062 -48.300781 C 6.949219 -47.257812 6.488281 -46.097656 6.023438 -45.058594 C 5.210938 -43.089844 4.75 -41.003906 4.863281 -38.917969 C 4.980469 -38.109375 4.863281 -37.414062 4.980469 -36.601562 C 5.097656 -33.125 6.140625 -29.882812 7.875 -26.871094 C 8.457031 -25.828125 9.265625 -24.902344 9.960938 -23.976562 C 10.308594 -23.398438 10.308594 -22.703125 9.960938 -22.238281 C 9.496094 -21.429688 9.035156 -20.734375 8.457031 -20.039062 C 7.179688 -18.300781 6.253906 -16.449219 5.328125 -14.59375 C 4.285156 -12.160156 3.707031 -9.730469 3.9375 -7.179688 C 3.9375 -6.140625 4.167969 -5.097656 4.515625 -4.054688 C 4.863281 -3.242188 5.210938 -2.433594 5.792969 -1.738281 C 6.140625 -1.273438 6.601562 -0.8125 6.949219 -0.347656 C 7.414062 0.347656 7.414062 1.042969 7.066406 1.738281 C 6.71875 2.664062 6.253906 3.589844 5.792969 4.632812 C 4.980469 6.371094 4.515625 8.222656 4.054688 10.191406 C 3.824219 11.351562 3.824219 12.507812 4.054688 13.785156 C 4.863281 17.375 6.488281 20.5 9.152344 23.050781 C 10.65625 24.554688 12.394531 25.714844 14.132812 26.757812 C 16.679688 28.144531 19.34375 29.1875 22.125 29.882812 C 24.207031 30.460938 26.175781 30.578125 28.261719 30.117188 C 29.304688 29.882812 30.347656 29.652344 31.390625 29.652344 C 33.242188 29.652344 34.980469 29.1875 36.601562 28.726562 C 38.339844 28.261719 40.078125 27.683594 41.699219 26.871094 C 45.984375 24.902344 48.996094 21.660156 50.5 17.140625 C 51.082031 15.636719 51.425781 14.015625 51.890625 12.507812 C 52.355469 10.425781 52.46875 8.339844 52.238281 6.253906 C 52.238281 5.792969 52.238281 5.328125 52.121094 4.863281 C 51.082031 1.390625 49.574219 -1.851562 47.257812 -4.632812 C 46.445312 -5.675781 45.519531 -6.71875 44.363281 -7.414062 C 41.582031 -9.035156 38.800781 -10.308594 35.675781 -10.886719 C 34.285156 -11.003906 32.894531 -11.234375 31.621094 -11.46875 C 29.535156 -11.816406 27.453125 -11.929688 25.367188 -11.929688 C 24.554688 -11.929688 23.859375 -11.929688 23.164062 -11.929688 C 21.3125 -11.929688 19.574219 -12.394531 17.835938 -12.972656 C 17.488281 -13.089844 17.027344 -13.4375 16.679688 -13.667969 C 15.867188 -14.132812 15.40625 -15.40625 15.753906 -16.449219 C 15.984375 -17.488281 17.027344 -18.300781 17.953125 -18.183594 C 19.460938 -18.183594 20.964844 -17.953125 22.46875 -17.722656 C 23.746094 -17.375 25.132812 -17.257812 26.410156 -17.257812 C 28.726562 -17.257812 30.925781 -17.140625 33.125 -17.722656 C 33.589844 -17.835938 34.054688 -17.953125 34.515625 -17.953125 C 36.136719 -18.070312 37.644531 -18.648438 39.265625 -19.113281 C 39.960938 -19.226562 40.65625 -19.574219 41.351562 -19.921875 C 43.667969 -21.3125 45.636719 -23.164062 47.140625 -25.480469 C 47.953125 -27.105469 48.878906 -28.609375 49.691406 -30.230469 C 50.734375 -32.085938 51.3125 -34.054688 51.425781 -36.136719 C 51.542969 -37.875 51.542969 -39.496094 51.542969 -41.117188 C 51.542969 -43.089844 50.964844 -44.941406 50.386719 -46.792969 C 50.152344 -47.257812 49.921875 -47.605469 49.804688 -48.070312 C 49.457031 -48.648438 49.226562 -49.457031 48.996094 -50.152344 C 48.878906 -50.386719 48.996094 -50.734375 49.109375 -50.964844 C 49.457031 -51.542969 49.921875 -51.890625 50.5 -52.007812 C 51.773438 -52.121094 52.933594 -52.121094 54.089844 -52.238281 C 55.828125 -52.46875 56.988281 -53.976562 56.988281 -55.714844 C 56.871094 -56.988281 56.410156 -58.03125 55.367188 -58.839844 C 54.207031 -59.882812 52.816406 -60.347656 51.3125 -60.230469 C 50.964844 -60.230469 50.734375 -60.230469 50.386719 -60.230469 C 49.921875 -60.113281 49.574219 -60 49.109375 -59.765625 C 48.417969 -59.417969 47.835938 -58.957031 47.375 -58.378906 C 46.792969 -57.683594 46.332031 -56.988281 45.753906 -56.292969 C 45.289062 -55.828125 44.246094 -55.597656 43.667969 -55.714844 C 43.320312 -55.828125 43.089844 -55.945312 42.742188 -56.0625 C 42.046875 -56.410156 41.464844 -56.753906 40.773438 -56.988281 C 37.296875 -58.492188 33.707031 -59.535156 29.882812 -59.304688 C 29.535156 -59.1875 29.304688 -59.304688 28.726562 -59.304688 Z M 22.007812 2.78125 C 22.933594 2.78125 23.859375 2.78125 24.789062 2.78125 C 26.410156 2.78125 28.03125 2.78125 29.652344 2.78125 C 31.390625 2.78125 32.894531 3.476562 34.515625 3.589844 C 35.789062 3.589844 36.832031 4.167969 37.992188 4.515625 C 38.917969 4.980469 39.730469 5.558594 40.539062 6.371094 C 41.582031 7.527344 42.160156 8.917969 42.277344 10.425781 C 42.277344 11.234375 42.277344 12.160156 42.046875 13.089844 C 41.929688 13.667969 41.8125 14.246094 41.582031 14.824219 C 40.886719 17.488281 39.382812 19.691406 37.066406 21.195312 C 35.210938 22.46875 33.125 23.398438 30.925781 23.976562 C 30.230469 24.207031 29.535156 24.207031 28.726562 24.324219 C 26.523438 24.324219 24.324219 23.746094 22.125 23.28125 C 20.617188 22.933594 19.34375 22.355469 17.953125 21.660156 C 16.332031 20.847656 14.824219 19.921875 13.320312 18.878906 C 11.929688 17.835938 11.003906 16.5625 10.425781 14.941406 C 10.191406 14.59375 10.078125 14.132812 10.078125 13.667969 C 10.078125 12.507812 9.960938 11.351562 9.960938 10.078125 C 9.960938 8.109375 10.539062 6.253906 11.46875 4.515625 C 12.046875 3.589844 12.855469 2.894531 14.015625 2.894531 C 15.171875 2.78125 16.332031 2.78125 17.605469 2.78125 C 19.113281 2.78125 20.5 2.78125 22.007812 2.78125 Z M 37.296875 -39.730469 C 37.296875 -37.992188 37.296875 -37.179688 37.296875 -36.484375 C 37.296875 -34.980469 37.296875 -33.472656 36.949219 -31.96875 C 36.484375 -30 36.023438 -27.914062 35.328125 -25.945312 C 34.75 -24.671875 34.167969 -23.628906 33.125 -22.585938 C 32.664062 -22.238281 32.199219 -21.890625 31.621094 -21.660156 C 31.273438 -21.542969 30.808594 -21.429688 30.347656 -21.195312 C 29.535156 -20.964844 28.609375 -20.847656 27.683594 -21.082031 C 26.988281 -21.195312 26.292969 -21.429688 25.597656 -21.542969 C 23.050781 -21.890625 21.777344 -23.628906 21.082031 -25.945312 C 21.082031 -26.0625 20.964844 -26.175781 20.964844 -26.410156 C 20.386719 -30.460938 20.039062 -34.632812 20.152344 -38.917969 C 20.152344 -39.960938 20.269531 -41.003906 20.386719 -41.929688 C 20.617188 -43.4375 20.734375 -44.941406 20.964844 -46.445312 C 21.3125 -48.53125 21.890625 -50.5 22.816406 -52.46875 C 22.933594 -52.816406 23.164062 -53.164062 23.398438 -53.628906 C 24.554688 -55.367188 26.175781 -56.292969 28.261719 -56.523438 C 28.839844 -56.640625 29.421875 -56.523438 30 -56.410156 C 30.695312 -56.175781 31.390625 -55.945312 32.085938 -55.597656 C 32.433594 -55.480469 32.78125 -55.132812 33.125 -54.785156 C 33.9375 -54.089844 34.515625 -53.28125 34.980469 -52.238281 C 35.445312 -51.195312 35.90625 -50.152344 36.136719 -48.878906 C 36.371094 -48.070312 36.484375 -47.140625 36.71875 -46.332031 C 36.949219 -45.40625 37.066406 -44.59375 37.066406 -43.667969 C 37.179688 -42.046875 37.179688 -40.308594 37.296875 -39.730469 Z M 11.121094 -10.773438 C 11.234375 -10.65625 11.351562 -10.65625 11.582031 -10.65625 C 12.160156 -10.425781 12.507812 -9.960938 12.972656 -9.613281 C 14.941406 -7.992188 17.140625 -7.296875 19.574219 -7.179688 C 20.964844 -7.066406 22.355469 -7.066406 23.628906 -7.066406 C 25.132812 -7.066406 26.640625 -7.066406 28.144531 -6.601562 C 28.839844 -6.488281 29.535156 -6.371094 30.347656 -6.371094 C 32.316406 -6.488281 34.167969 -5.90625 36.023438 -5.328125 C 37.875 -4.863281 39.730469 -4.054688 41.351562 -2.894531 C 41.8125 -2.546875 42.277344 -2.199219 42.625 -1.738281 C 43.550781 -0.8125 44.363281 0.347656 44.941406 1.503906 C 45.058594 1.851562 44.941406 2.085938 44.710938 2.316406 C 44.59375 2.433594 44.363281 2.316406 44.246094 2.316406 C 43.550781 1.738281 42.855469 1.273438 42.160156 0.695312 C 40.886719 -0.117188 39.496094 -0.8125 37.992188 -1.042969 C 37.296875 -1.160156 36.601562 -1.273438 35.789062 -1.503906 C 34.632812 -1.738281 33.472656 -1.96875 32.316406 -1.96875 C 30.808594 -1.96875 29.304688 -1.96875 27.796875 -1.96875 C 24.09375 -1.96875 20.269531 -1.96875 16.5625 -1.96875 C 15.867188 -2.085938 15.058594 -2.085938 14.363281 -2.085938 C 13.320312 -2.316406 12.394531 -2.78125 11.582031 -3.589844 C 11.003906 -4.167969 10.539062 -4.980469 10.191406 -5.792969 C 9.960938 -6.371094 9.84375 -6.949219 9.613281 -7.527344 C 9.265625 -8.457031 9.613281 -9.265625 10.078125 -10.078125 C 10.078125 -10.191406 10.191406 -10.308594 10.308594 -10.425781 C 10.539062 -10.65625 10.773438 -10.773438 11.121094 -10.773438 Z M 10.078125 -36.949219 C 10.078125 -38.222656 10.078125 -38.570312 10.078125 -39.035156 C 10.191406 -39.960938 10.308594 -40.886719 10.539062 -41.699219 C 11.234375 -43.667969 12.160156 -45.636719 13.089844 -47.488281 C 13.320312 -47.953125 13.785156 -48.417969 14.246094 -48.761719 C 14.480469 -48.996094 14.710938 -49.109375 15.058594 -48.996094 C 15.289062 -48.996094 15.519531 -48.761719 15.636719 -48.53125 C 15.753906 -48.070312 15.867188 -47.605469 15.867188 -47.140625 C 15.867188 -46.5625 15.753906 -45.984375 15.753906 -45.40625 C 15.289062 -41.003906 15.171875 -36.71875 15.40625 -32.433594 C 15.40625 -31.503906 15.40625 -30.578125 15.40625 -29.652344 C 15.40625 -29.421875 15.171875 -29.1875 15.171875 -28.839844 C 14.941406 -28.261719 14.132812 -28.03125 13.667969 -28.378906 C 13.089844 -28.839844 12.625 -29.421875 12.277344 -30.117188 C 11.46875 -31.621094 10.886719 -33.359375 10.308594 -35.097656 C 10.191406 -35.90625 10.078125 -36.832031 10.078125 -36.949219 Z M 42.394531 -37.875 C 42.394531 -39.035156 42.394531 -40.191406 42.394531 -41.464844 C 42.277344 -43.4375 42.394531 -45.519531 41.929688 -47.605469 C 42.046875 -47.835938 42.160156 -48.183594 42.394531 -48.300781 C 42.625 -48.53125 42.972656 -48.53125 43.203125 -48.300781 C 43.320312 -48.183594 43.4375 -48.183594 43.550781 -48.070312 C 43.667969 -47.953125 43.78125 -47.835938 43.78125 -47.722656 C 45.058594 -45.867188 45.753906 -43.78125 46.214844 -41.582031 C 46.679688 -39.265625 46.445312 -37.066406 45.867188 -34.980469 C 45.867188 -34.515625 45.636719 -34.167969 45.40625 -33.707031 C 44.824219 -32.316406 44.128906 -31.042969 43.203125 -29.882812 C 43.203125 -29.769531 42.972656 -29.652344 42.855469 -29.652344 C 42.742188 -29.652344 42.625 -29.769531 42.507812 -29.882812 C 42.507812 -30.117188 42.394531 -30.460938 42.394531 -30.695312 C 42.394531 -33.125 42.394531 -35.445312 42.394531 -37.875 Z M 42.394531 -37.875 "/></g></g></g><g fill="#0089a7" fill-opacity="1"><g transform="translate(487.662159, 422.040192)"><g/></g></g><g fill="#0089a7" fill-opacity="1"><g transform="translate(510.826439, 422.040192)"><g><path d="M 4.863281 -27.105469 C 4.75 -19.921875 4.863281 -12.742188 4.632812 -5.558594 C 4.515625 -4.980469 4.515625 -4.285156 4.515625 -3.707031 C 4.515625 -3.242188 4.632812 -2.894531 4.75 -2.433594 C 4.863281 -1.042969 6.140625 0.117188 7.414062 0.117188 C 7.761719 0.117188 8.109375 0.117188 8.339844 0.117188 C 11.351562 0.117188 14.363281 0.117188 17.375 0.117188 C 18.070312 0 18.878906 0 19.574219 0 C 20.039062 -0.117188 20.386719 -0.230469 20.847656 -0.347656 C 21.3125 -0.578125 21.542969 -0.925781 21.660156 -1.390625 C 21.890625 -2.085938 21.890625 -2.894531 21.890625 -3.589844 C 21.890625 -9.382812 21.890625 -15.289062 21.890625 -21.082031 C 21.890625 -24.441406 22.007812 -27.683594 22.007812 -30.925781 C 22.007812 -31.621094 22.125 -32.199219 22.238281 -32.78125 C 22.355469 -33.589844 23.164062 -34.402344 23.976562 -34.515625 C 24.671875 -34.75 25.480469 -34.863281 26.175781 -34.75 C 26.988281 -34.632812 27.683594 -34.402344 28.144531 -33.820312 C 28.378906 -33.589844 28.609375 -33.359375 28.726562 -33.125 C 31.042969 -29.882812 33.359375 -26.523438 35.328125 -22.933594 C 36.253906 -21.429688 37.066406 -19.921875 38.109375 -18.417969 C 39.382812 -16.5625 40.65625 -14.710938 41.929688 -12.855469 C 42.625 -11.699219 43.4375 -10.539062 44.128906 -9.382812 C 44.59375 -8.570312 45.058594 -7.644531 45.636719 -6.71875 C 46.679688 -4.863281 47.835938 -3.128906 49.226562 -1.503906 C 49.574219 -1.042969 50.039062 -0.695312 50.5 -0.347656 C 50.964844 0.117188 51.542969 0.347656 52.121094 0.347656 C 52.46875 0.347656 52.703125 0.464844 53.050781 0.464844 C 56.753906 0.230469 60.460938 0.230469 64.285156 0.117188 C 64.515625 0.117188 64.863281 0 65.09375 0 C 65.789062 -0.117188 66.484375 -0.925781 66.484375 -1.621094 C 66.601562 -2.199219 66.484375 -2.78125 66.253906 -3.359375 C 65.675781 -4.75 64.863281 -6.023438 64.054688 -7.179688 C 61.96875 -10.539062 59.882812 -13.785156 57.914062 -17.140625 C 57.101562 -18.53125 56.292969 -19.921875 55.25 -21.3125 C 54.785156 -21.890625 54.4375 -22.585938 54.089844 -23.164062 C 53.050781 -24.789062 52.007812 -26.410156 50.964844 -28.144531 C 49.457031 -30.460938 47.835938 -32.78125 46.332031 -35.210938 C 45.867188 -35.90625 45.636719 -36.601562 45.289062 -37.179688 C 45.171875 -37.527344 45.171875 -37.761719 45.40625 -38.109375 C 45.519531 -38.339844 45.636719 -38.6875 45.867188 -38.800781 C 46.679688 -39.613281 47.722656 -40.308594 48.761719 -40.886719 C 50.847656 -41.8125 52.585938 -43.203125 54.4375 -44.476562 C 56.640625 -46.097656 58.492188 -48.070312 59.882812 -50.386719 C 61.390625 -52.703125 62.316406 -55.132812 62.316406 -57.914062 C 62.429688 -60 62.546875 -62.082031 62.199219 -64.167969 C 62.082031 -64.980469 61.851562 -65.675781 61.621094 -66.371094 C 59.1875 -71.929688 55.132812 -75.984375 49.691406 -78.761719 C 47.722656 -79.804688 45.636719 -80.382812 43.320312 -80.617188 C 39.613281 -80.964844 35.90625 -81.3125 32.085938 -81.195312 C 29.882812 -81.195312 27.683594 -81.195312 25.367188 -81.195312 C 20.152344 -81.195312 14.941406 -81.195312 9.730469 -81.195312 C 8.917969 -81.195312 8.222656 -81.078125 7.414062 -81.078125 C 6.371094 -80.847656 5.210938 -79.691406 5.097656 -78.648438 C 4.980469 -78.183594 4.863281 -77.71875 4.863281 -77.257812 C 4.980469 -71.582031 4.863281 -65.90625 5.210938 -60.230469 C 5.445312 -57.566406 5.445312 -54.902344 5.097656 -52.238281 C 4.980469 -50.734375 4.863281 -49.226562 4.863281 -47.722656 C 4.863281 -40.886719 4.863281 -33.9375 4.863281 -27.105469 Z M 21.890625 -56.753906 C 21.890625 -60.113281 21.890625 -63.359375 21.890625 -66.601562 C 21.890625 -68.917969 22.007812 -71.117188 22.355469 -73.320312 C 22.355469 -73.898438 22.46875 -74.59375 22.703125 -75.058594 C 22.933594 -75.867188 23.511719 -76.445312 24.207031 -76.679688 C 25.480469 -77.027344 26.871094 -77.257812 28.144531 -77.488281 C 29.074219 -77.605469 29.882812 -77.605469 30.808594 -77.375 C 31.738281 -77.257812 32.546875 -77.027344 33.472656 -76.910156 C 36.484375 -76.332031 38.917969 -74.710938 40.886719 -72.277344 C 41.464844 -71.464844 41.8125 -70.65625 42.046875 -69.84375 C 42.507812 -68.570312 42.855469 -67.296875 42.972656 -65.90625 C 43.4375 -61.621094 43.4375 -57.335938 42.507812 -53.050781 C 41.929688 -50.847656 41.117188 -48.761719 39.84375 -46.910156 C 38.453125 -44.941406 36.832031 -43.203125 34.863281 -41.8125 C 33.359375 -40.773438 31.738281 -40.078125 29.882812 -39.730469 C 28.261719 -39.496094 26.640625 -39.265625 25.019531 -39.265625 C 24.554688 -39.148438 24.207031 -39.265625 23.746094 -39.265625 C 23.050781 -39.265625 22.238281 -40.078125 22.125 -40.65625 C 22.007812 -41.351562 21.890625 -41.929688 21.890625 -42.507812 C 21.890625 -44.59375 21.890625 -46.679688 21.890625 -48.761719 C 21.890625 -51.425781 21.890625 -54.089844 21.890625 -56.753906 Z M 17.140625 -40.773438 C 17.140625 -31.042969 17.140625 -21.3125 17.140625 -11.699219 C 17.140625 -10.425781 17.027344 -9.265625 17.027344 -8.109375 C 17.027344 -7.296875 16.679688 -6.601562 16.332031 -5.90625 C 16.214844 -5.558594 15.753906 -5.210938 15.40625 -5.097656 C 13.898438 -4.515625 12.507812 -4.515625 11.003906 -4.980469 C 10.425781 -5.097656 9.960938 -5.558594 9.730469 -6.140625 C 9.613281 -6.488281 9.496094 -6.949219 9.496094 -7.414062 C 9.382812 -8.804688 9.265625 -10.078125 9.613281 -11.46875 C 9.960938 -13.667969 9.960938 -15.867188 9.960938 -18.183594 C 9.960938 -26.757812 9.960938 -35.445312 9.960938 -44.128906 C 9.960938 -46.214844 10.078125 -48.300781 10.078125 -50.386719 C 10.078125 -53.859375 10.078125 -57.335938 10.078125 -60.695312 C 10.078125 -64.285156 9.960938 -67.875 9.960938 -71.464844 C 9.960938 -72.394531 10.078125 -73.320312 10.078125 -74.128906 C 10.191406 -74.941406 11.003906 -75.75 11.929688 -75.867188 C 13.089844 -76.097656 14.246094 -76.097656 15.519531 -75.867188 C 16.101562 -75.75 16.910156 -75.058594 17.027344 -74.363281 C 17.027344 -74.128906 17.140625 -73.78125 17.140625 -73.550781 C 17.140625 -73.085938 17.140625 -72.625 17.140625 -72.160156 C 17.140625 -61.738281 17.140625 -51.195312 17.140625 -40.773438 Z M 55.480469 -4.632812 C 55.019531 -4.75 54.554688 -4.75 54.089844 -4.75 C 53.28125 -4.980469 52.703125 -5.210938 52.238281 -5.90625 C 52.007812 -6.488281 51.660156 -6.949219 51.3125 -7.527344 C 49.574219 -10.886719 47.605469 -14.246094 45.289062 -17.375 C 41.929688 -22.238281 38.800781 -27.335938 35.789062 -32.546875 C 35.675781 -32.78125 35.558594 -33.011719 35.328125 -33.242188 C 34.980469 -34.054688 35.210938 -35.210938 35.789062 -35.789062 C 36.371094 -36.253906 36.949219 -36.71875 37.644531 -37.066406 C 37.992188 -37.179688 38.6875 -36.949219 38.917969 -36.71875 C 39.84375 -35.445312 40.773438 -34.054688 41.582031 -32.664062 C 42.742188 -30.808594 43.78125 -29.074219 44.941406 -27.335938 C 47.140625 -24.09375 49.226562 -20.847656 51.425781 -17.605469 C 51.890625 -16.796875 52.585938 -15.984375 53.050781 -15.058594 C 54.207031 -12.625 55.714844 -10.308594 57.21875 -8.109375 C 57.566406 -7.527344 57.914062 -6.832031 58.144531 -6.140625 C 58.261719 -5.792969 57.914062 -5.210938 57.566406 -5.097656 C 57.449219 -4.980469 57.335938 -4.980469 57.21875 -4.863281 C 56.640625 -4.863281 56.0625 -4.75 55.480469 -4.632812 Z M 57.566406 -60.695312 C 57.566406 -58.378906 56.988281 -56.640625 56.292969 -55.019531 C 55.828125 -54.089844 55.25 -53.164062 54.785156 -52.355469 C 54.089844 -51.195312 53.164062 -50.152344 52.007812 -49.34375 C 50.617188 -48.417969 49.34375 -47.375 47.953125 -46.679688 C 47.605469 -46.445312 47.257812 -46.445312 47.027344 -46.679688 C 46.910156 -46.910156 46.679688 -47.140625 46.5625 -47.375 C 46.445312 -47.722656 46.5625 -47.953125 46.679688 -48.300781 C 46.792969 -49.804688 47.605469 -51.082031 47.722656 -52.585938 C 47.835938 -54.089844 47.953125 -55.597656 48.070312 -57.101562 C 48.300781 -58.726562 48.300781 -60.347656 48.183594 -61.96875 C 48.070312 -63.707031 47.953125 -65.328125 47.835938 -66.949219 C 47.835938 -68.453125 47.722656 -69.960938 47.257812 -71.351562 C 47.140625 -71.464844 47.140625 -71.699219 47.140625 -71.8125 C 47.257812 -72.277344 47.488281 -72.625 47.953125 -72.855469 C 48.183594 -72.972656 48.417969 -72.972656 48.761719 -72.855469 C 50.269531 -72.160156 51.542969 -71.234375 52.816406 -70.074219 C 52.933594 -70.074219 53.050781 -69.960938 53.164062 -69.84375 C 54.902344 -67.527344 56.523438 -65.210938 57.21875 -62.429688 C 57.449219 -61.738281 57.566406 -60.925781 57.566406 -60.695312 Z M 57.566406 -60.695312 "/></g></g></g><g fill="#0089a7" fill-opacity="1"><g transform="translate(580.203428, 422.040192)"><g><path d="M 31.042969 0.347656 C 31.390625 0.347656 32.316406 0.464844 33.242188 0.464844 C 35.789062 0.464844 38.222656 0.117188 40.65625 -0.925781 C 43.898438 -2.085938 46.910156 -3.707031 49.921875 -5.558594 C 50.269531 -5.792969 50.617188 -6.023438 50.964844 -6.371094 C 51.542969 -6.832031 51.890625 -7.527344 51.890625 -8.222656 C 52.007812 -9.382812 51.082031 -10.308594 50.039062 -10.191406 C 49.226562 -10.078125 48.417969 -9.960938 47.835938 -9.730469 C 46.445312 -9.152344 44.941406 -8.917969 43.4375 -8.457031 C 41.929688 -7.992188 40.308594 -7.875 38.570312 -7.992188 C 37.066406 -8.109375 35.675781 -8.570312 34.285156 -8.917969 C 31.96875 -9.730469 29.882812 -10.886719 28.144531 -12.625 C 26.0625 -14.59375 24.324219 -16.796875 22.816406 -19.226562 C 22.703125 -19.460938 22.46875 -19.691406 22.355469 -20.039062 C 21.429688 -22.46875 20.386719 -25.019531 19.921875 -27.683594 C 19.804688 -28.03125 20.269531 -28.957031 20.734375 -29.074219 C 21.082031 -29.1875 21.3125 -29.304688 21.660156 -29.421875 C 23.511719 -29.769531 25.480469 -29.882812 27.453125 -29.882812 C 30.578125 -29.882812 33.707031 -29.882812 36.832031 -29.882812 C 41.699219 -29.882812 46.445312 -30.117188 51.195312 -30.347656 C 51.660156 -30.347656 52.121094 -30.460938 52.585938 -30.578125 C 53.164062 -30.695312 53.628906 -31.042969 53.976562 -31.621094 C 54.324219 -32.085938 54.4375 -32.664062 54.554688 -33.242188 C 54.785156 -35.210938 54.671875 -37.179688 54.089844 -39.035156 C 53.859375 -40.078125 53.746094 -41.117188 53.398438 -42.046875 C 52.933594 -43.78125 52.703125 -45.636719 52.121094 -47.257812 C 51.425781 -49.34375 50.269531 -50.964844 48.53125 -52.355469 C 45.636719 -54.785156 42.507812 -56.753906 38.800781 -57.796875 C 37.875 -58.144531 36.832031 -58.378906 35.789062 -58.378906 C 34.402344 -58.378906 33.125 -58.261719 31.738281 -57.914062 C 31.273438 -57.683594 30.578125 -57.683594 30 -57.449219 C 27.566406 -56.988281 25.019531 -56.523438 22.585938 -55.714844 C 18.878906 -54.554688 15.40625 -52.933594 12.507812 -50.152344 C 12.046875 -49.804688 11.582031 -49.457031 11.121094 -48.996094 C 9.152344 -47.140625 7.644531 -44.941406 6.488281 -42.507812 C 4.863281 -38.917969 4.054688 -35.097656 3.359375 -31.273438 C 3.242188 -31.042969 3.242188 -30.695312 3.242188 -30.347656 C 3.011719 -26.292969 3.011719 -22.355469 4.054688 -18.300781 C 4.285156 -16.796875 4.863281 -15.519531 5.558594 -14.132812 C 6.832031 -11.929688 8.339844 -9.84375 10.308594 -8.109375 C 10.65625 -7.761719 11.121094 -7.414062 11.699219 -7.066406 C 14.132812 -5.328125 16.679688 -3.707031 19.34375 -2.316406 C 20.617188 -1.621094 22.007812 -1.160156 23.398438 -0.578125 C 24.324219 -0.347656 25.132812 -0.117188 26.0625 0 C 27.566406 0.117188 29.074219 0.230469 31.042969 0.347656 Z M 29.769531 -33.820312 C 27.566406 -33.820312 25.367188 -33.820312 23.050781 -33.820312 C 22.46875 -33.9375 21.890625 -34.054688 21.3125 -34.167969 C 20.847656 -34.285156 20.269531 -34.980469 20.269531 -35.445312 C 20.152344 -35.90625 20.152344 -36.253906 20.152344 -36.71875 C 20.386719 -38.800781 21.195312 -40.773438 21.660156 -42.855469 C 22.238281 -45.058594 23.398438 -46.910156 24.902344 -48.648438 C 26.523438 -50.5 28.609375 -51.542969 30.925781 -52.121094 C 32.085938 -52.355469 33.359375 -52.355469 34.515625 -52.46875 C 34.632812 -52.46875 34.863281 -52.46875 34.980469 -52.46875 C 36.71875 -52.355469 38.109375 -51.542969 39.035156 -50.039062 C 39.84375 -48.761719 40.191406 -47.257812 40.308594 -45.753906 C 40.308594 -44.128906 40.308594 -42.507812 40.308594 -40.886719 C 40.308594 -39.496094 40.191406 -38.222656 40.191406 -36.832031 C 40.078125 -36.371094 39.960938 -36.023438 39.84375 -35.558594 C 39.613281 -34.75 39.035156 -34.285156 38.222656 -34.054688 C 37.644531 -33.9375 37.066406 -33.820312 36.484375 -33.820312 C 34.285156 -33.820312 32.085938 -33.820312 29.769531 -33.820312 Z M 15.519531 -45.289062 C 15.753906 -45.058594 15.984375 -44.941406 15.984375 -44.59375 C 15.867188 -44.015625 15.867188 -43.320312 15.753906 -42.855469 C 15.171875 -41.464844 15.058594 -39.960938 14.710938 -38.453125 C 14.246094 -36.71875 14.015625 -34.980469 14.015625 -33.125 C 14.015625 -32.316406 14.015625 -31.390625 14.015625 -30.460938 C 14.015625 -29.421875 14.246094 -28.378906 14.480469 -27.453125 C 14.941406 -24.789062 15.753906 -22.238281 16.679688 -19.691406 C 17.257812 -18.300781 17.953125 -17.027344 18.765625 -15.753906 C 20.152344 -13.667969 21.660156 -11.582031 23.511719 -9.84375 C 24.554688 -9.035156 25.597656 -8.109375 26.292969 -6.949219 C 26.523438 -6.71875 26.175781 -5.90625 25.828125 -5.90625 C 25.714844 -5.90625 25.480469 -5.792969 25.367188 -5.792969 C 24.671875 -6.023438 23.976562 -6.253906 23.28125 -6.488281 C 20.152344 -7.875 17.257812 -9.730469 14.363281 -11.699219 C 14.132812 -11.816406 13.898438 -12.046875 13.667969 -12.277344 C 11.929688 -14.015625 10.425781 -16.101562 9.613281 -18.53125 C 9.265625 -19.691406 8.804688 -20.847656 8.6875 -22.007812 C 8.570312 -22.933594 8.339844 -23.746094 8.222656 -24.671875 C 7.875 -26.410156 7.761719 -28.144531 8.339844 -29.882812 C 8.804688 -31.503906 9.152344 -33.125 9.496094 -34.75 C 10.078125 -37.179688 11.121094 -39.496094 12.277344 -41.8125 C 12.855469 -42.972656 13.550781 -44.128906 14.59375 -44.941406 C 14.824219 -45.058594 15.171875 -45.171875 15.519531 -45.289062 Z M 45.058594 -41.699219 C 44.941406 -43.203125 44.941406 -44.710938 45.636719 -46.097656 C 45.867188 -46.445312 46.097656 -46.445312 46.332031 -46.214844 C 46.5625 -45.984375 46.910156 -45.867188 47.027344 -45.636719 C 47.488281 -44.015625 48.070312 -42.507812 48.300781 -40.886719 C 48.53125 -39.84375 48.761719 -38.800781 48.996094 -37.875 C 49.109375 -37.414062 48.996094 -36.949219 48.878906 -36.484375 C 48.761719 -35.90625 47.722656 -35.210938 47.140625 -35.445312 C 47.027344 -35.558594 46.910156 -35.558594 46.679688 -35.675781 C 46.097656 -35.90625 45.636719 -36.253906 45.519531 -36.832031 C 45.289062 -37.527344 45.058594 -38.339844 45.058594 -39.035156 C 44.941406 -39.960938 45.058594 -40.773438 45.058594 -41.699219 Z M 45.058594 -41.699219 "/></g></g></g><g fill="#0089a7" fill-opacity="1"><g transform="translate(637.766621, 422.040192)"><g><path d="M 4.75 -28.957031 C 4.75 -21.3125 4.515625 -13.667969 4.632812 -6.140625 C 4.632812 -5.210938 4.632812 -4.285156 4.632812 -3.359375 C 4.632812 -2.316406 5.210938 -1.390625 5.90625 -0.695312 C 6.371094 -0.230469 6.949219 0 7.527344 0.117188 C 7.644531 0.117188 7.875 0.117188 7.992188 0.117188 C 11.234375 0.117188 14.59375 0.117188 17.835938 0.117188 C 19.34375 0.117188 20.847656 -0.925781 20.847656 -2.664062 C 20.734375 -7.296875 20.847656 -11.929688 20.5 -16.5625 C 20.386719 -18.183594 20.152344 -19.804688 20.152344 -21.429688 C 20.152344 -26.871094 20.039062 -32.199219 20.039062 -37.644531 C 20.039062 -38.917969 20.152344 -40.308594 20.152344 -41.582031 C 20.152344 -42.507812 20.386719 -43.4375 20.617188 -44.246094 C 20.847656 -44.941406 21.3125 -45.636719 21.777344 -46.097656 C 21.890625 -46.214844 22.007812 -46.332031 22.125 -46.445312 C 24.441406 -48.300781 26.0625 -49.109375 28.839844 -49.804688 C 31.15625 -50.386719 33.359375 -50.269531 35.445312 -49.34375 C 36.484375 -48.878906 37.296875 -48.300781 37.875 -47.375 C 38.800781 -45.867188 39.613281 -44.246094 39.730469 -42.394531 C 39.84375 -41.464844 39.960938 -40.65625 39.960938 -39.730469 C 39.960938 -37.066406 39.960938 -34.402344 39.960938 -31.621094 C 39.84375 -23.398438 39.84375 -15.171875 39.730469 -6.949219 C 39.730469 -6.601562 39.730469 -6.140625 39.730469 -5.675781 C 39.730469 -4.402344 40.078125 -3.242188 40.65625 -2.199219 C 41.117188 -1.621094 41.582031 -1.042969 42.277344 -0.695312 C 43.089844 -0.230469 43.898438 0.117188 44.824219 0.117188 C 47.488281 0.117188 50.152344 0.117188 52.933594 0.117188 C 53.164062 0.117188 53.511719 0 53.746094 0 C 54.671875 -0.117188 55.714844 -1.160156 55.828125 -2.085938 C 56.0625 -3.128906 56.0625 -4.167969 56.0625 -5.210938 C 55.828125 -12.742188 55.828125 -20.152344 55.945312 -27.683594 C 55.945312 -31.738281 55.945312 -35.789062 55.945312 -39.730469 C 55.945312 -42.625 55.714844 -45.40625 55.019531 -48.183594 C 54.324219 -50.964844 53.050781 -53.164062 50.847656 -54.902344 C 49.804688 -55.597656 48.878906 -56.292969 47.835938 -56.871094 C 46.214844 -57.566406 44.476562 -58.144531 42.625 -58.144531 C 40.425781 -58.144531 38.109375 -58.261719 36.023438 -57.566406 C 35.558594 -57.335938 35.097656 -57.335938 34.632812 -57.335938 C 33.011719 -57.21875 31.503906 -56.523438 29.882812 -56.0625 C 28.609375 -55.714844 27.335938 -55.132812 26.292969 -54.4375 C 24.671875 -53.511719 23.164062 -52.46875 21.660156 -51.542969 C 21.429688 -51.3125 20.734375 -51.660156 20.734375 -52.121094 C 20.734375 -52.816406 20.617188 -53.628906 20.617188 -54.324219 C 20.617188 -54.785156 20.5 -55.25 20.5 -55.714844 C 20.269531 -56.523438 19.34375 -57.335938 18.648438 -57.449219 C 18.300781 -57.449219 17.953125 -57.449219 17.722656 -57.449219 C 14.246094 -57.449219 10.773438 -57.449219 7.414062 -57.449219 C 7.066406 -57.449219 6.832031 -57.449219 6.488281 -57.335938 C 6.140625 -57.21875 5.675781 -57.101562 5.445312 -56.640625 C 5.097656 -55.945312 4.75 -55.25 4.75 -54.554688 C 4.75 -52.703125 4.75 -50.964844 4.75 -49.109375 C 4.75 -45.984375 4.75 -42.855469 4.75 -39.730469 C 4.863281 -36.136719 4.75 -32.546875 4.75 -28.957031 Z M 44.941406 -25.480469 C 44.941406 -30.230469 44.941406 -35.097656 44.941406 -39.84375 C 44.941406 -40.773438 44.941406 -41.582031 44.941406 -42.507812 C 44.941406 -44.824219 44.246094 -46.910156 43.089844 -48.878906 C 42.625 -49.804688 41.8125 -50.617188 41.464844 -51.542969 C 41.464844 -51.890625 41.699219 -52.585938 42.046875 -52.703125 C 42.160156 -52.703125 42.277344 -52.816406 42.507812 -52.816406 C 42.855469 -52.816406 43.4375 -52.816406 43.78125 -52.703125 C 45.171875 -52.238281 46.5625 -51.542969 47.722656 -50.5 C 48.417969 -49.921875 48.878906 -49.226562 49.34375 -48.417969 C 49.804688 -47.257812 50.269531 -46.214844 50.386719 -44.941406 C 50.847656 -42.160156 51.195312 -39.382812 51.195312 -36.484375 C 51.082031 -33.242188 51.195312 -29.882812 51.082031 -26.640625 C 50.964844 -21.542969 51.082031 -16.449219 51.082031 -11.351562 C 51.082031 -10.191406 51.082031 -8.917969 51.082031 -7.761719 C 50.964844 -7.296875 50.964844 -6.832031 50.847656 -6.371094 C 50.734375 -5.792969 50.039062 -4.980469 49.457031 -4.863281 C 48.417969 -4.632812 47.375 -4.632812 46.332031 -4.980469 C 45.519531 -5.210938 45.058594 -5.90625 45.058594 -6.601562 C 44.941406 -7.644531 44.941406 -8.6875 44.941406 -9.730469 C 44.941406 -14.941406 44.941406 -20.269531 44.941406 -25.480469 Z M 15.289062 -28.957031 C 15.289062 -26.0625 15.40625 -23.28125 15.519531 -20.386719 C 15.519531 -16.332031 15.519531 -12.394531 15.636719 -8.339844 C 15.636719 -7.761719 15.519531 -7.066406 15.40625 -6.488281 C 15.289062 -5.90625 14.824219 -5.445312 14.363281 -5.210938 C 13.550781 -4.75 12.625 -4.632812 11.699219 -4.863281 C 10.191406 -5.097656 9.265625 -6.140625 9.152344 -7.527344 C 9.152344 -10.539062 9.035156 -13.550781 9.613281 -16.5625 C 9.84375 -17.722656 9.84375 -18.878906 9.84375 -20.039062 C 9.960938 -21.890625 9.960938 -23.628906 9.960938 -25.480469 C 9.960938 -32.78125 9.960938 -40.191406 9.960938 -47.488281 C 9.960938 -48.648438 9.960938 -49.921875 10.078125 -51.082031 C 10.191406 -52.121094 11.234375 -52.933594 12.277344 -52.816406 C 12.855469 -52.703125 13.4375 -52.585938 14.015625 -52.238281 C 14.710938 -51.890625 15.171875 -51.3125 15.171875 -50.5 C 15.289062 -49.574219 15.289062 -48.648438 15.289062 -47.835938 C 15.289062 -42.855469 15.289062 -37.875 15.289062 -33.011719 C 15.289062 -31.621094 15.289062 -30.347656 15.289062 -28.957031 Z M 15.289062 -28.957031 "/></g></g></g></svg>